
<svg width="1920px" height="1280px" viewBox="0 0 1920 1280" version="1.1" xmlns="http://www.w3.org/2000/svg" xmlns:xlink="http://www.w3.org/1999/xlink">
    <!-- Generator: Sketch 50.2 (55047) - http://www.bohemiancoding.com/sketch -->
    <desc>Created with Sketch.</desc>
    <defs>
        <rect id="path-1" x="0" y="0" width="1920" height="1280"></rect>
        <polyline id="path-3" points="0.616 45.8920769 17.192 0.502461538 24.09925 0.502461538 41.3665 45.8920769 0.616 45.8920769"></polyline>
        <polyline id="path-5" points="0.266103226 45.8920769 16.8023819 0.502461538 23.6948258 0.502461538 40.9206981 45.8920769 0.266103226 45.8920769"></polyline>
    </defs>
    <g id="Page-1" stroke="none" stroke-width="1" fill="none" fill-rule="evenodd">
        <g id="Group-9">
            <mask id="mask-2" fill="white">
                <use xlink:href="#path-1"></use>
            </mask>
            <use id="Mask" fill="#D8D8D8" xlink:href="#path-1"></use>
            <g mask="url(#mask-2)">
                <g transform="translate(-478.000000, 0.000000)">
                    <g id="Group-8" stroke-width="1" fill="none" transform="translate(478.000000, 0.000000)">
                        <g id="Group-2">
                            <rect id="Rectangle" fill="#C7D8E6" x="0" y="0" width="1920" height="1280"></rect>
                            <g id="Group" transform="translate(1112.000000, 389.000000)">
                                <path d="M94,437 L685,437" id="Stroke-4" stroke="#98BDDA" stroke-width="1.887" stroke-linecap="round" stroke-linejoin="round"></path>
                                <polygon id="Fill-5" fill="#F9F7F9" points="118 437 638 437 638 114 118 114"></polygon>
                                <polygon id="Fill-6" fill="#2F5595" points="118 437 249 437 249 114 118 114"></polygon>
                                <path d="M625.68605,82 L130.31395,82 C123.512293,82 118,87.288764 118,93.8146067 L118,112 L638,112 L638,93.8146067 C638,87.288764 632.48595,82 625.68605,82" id="Fill-7" fill="#518BBD"></path>
                                <path d="M159,97.0008348 C159,100.315152 156.313483,103 153.000835,103 C149.686517,103 147,100.315152 147,97.0008348 C147,93.6865173 149.686517,91 153.000835,91 C156.313483,91 159,93.6865173 159,97.0008348" id="Fill-8" fill="#C7D8E6"></path>
                                <path d="M177,97.0008348 C177,100.315152 174.313483,103 171.000835,103 C167.686517,103 165,100.315152 165,97.0008348 C165,93.6865173 167.686517,91 171.000835,91 C174.313483,91 177,93.6865173 177,97.0008348" id="Fill-9" fill="#DEC851"></path>
                                <path d="M196,97.0008348 C196,100.315152 193.315152,103 190.000835,103 C186.686517,103 184,100.315152 184,97.0008348 C184,93.6865173 186.686517,91 190.000835,91 C193.315152,91 196,93.6865173 196,97.0008348" id="Fill-10" fill="#C7D8E6"></path>
                                <path d="M225,190 C225,212.644425 206.644425,231 184.001747,231 C161.357322,231 143,212.644425 143,190 C143,167.357322 161.357322,149 184.001747,149 C206.644425,149 225,167.357322 225,190" id="Fill-11" fill="#518BBD"></path>
                                <path d="M195,179.999122 C195,186.073657 190.073657,191 184.000878,191 C177.926343,191 173,186.073657 173,179.999122 C173,173.926343 177.926343,169 184.000878,169 C190.073657,169 195,173.926343 195,179.999122" id="Fill-12" fill="#2F5595"></path>
                                <path d="M159,208 L162.95675,200.754082 C165.228054,196.59426 169.635194,194 174.431148,194 L190.476304,194 C194.804274,194 198.852509,196.118011 201.273357,199.649184 L207,208 L159,208" id="Fill-13" fill="#2F5595"></path>
                                <polygon id="Fill-14" fill="#C7D8E6" points="490 273 615 273 615 149 490 149"></polygon>
                                <polygon id="Fill-15" fill="#C7D8E6" points="490 405 615 405 615 295 490 295"></polygon>
                                <polygon id="Fill-16" fill="#3B6AA5" points="557 186 582 186 582 149 557 149"></polygon>
                                <path d="M317,179 C317,191.702399 306.702399,202 294,202 C281.295816,202 271,191.702399 271,179 C271,166.297601 281.295816,156 294,156 C306.702399,156 317,166.297601 317,179" id="Fill-17" fill="#C7D8E6"></path>
                                <path d="M333,162 L419,162 M333,179.602655 L376,179.602655 M333,197.207104 L419,197.207104" id="Stroke-18" stroke="#C7D8E6" stroke-width="4.463" stroke-linecap="round" stroke-linejoin="round"></path>
                                <path d="M317,268.000893 C317,280.703784 306.702399,291 294,291 C281.295816,291 271,280.703784 271,268.000893 C271,255.296216 281.295816,245 294,245 C306.702399,245 317,255.296216 317,268.000893" id="Fill-19" fill="#C7D8E6"></path>
                                <path d="M333,252 L419,252 M333,269.603595 L376,269.603595 M333,287.207191 L419,287.207191" id="Stroke-20" stroke="#C7D8E6" stroke-width="4.463" stroke-linecap="round" stroke-linejoin="round"></path>
                                <path d="M317,357 C317,369.702399 306.702399,380 294,380 C281.295816,380 271,369.702399 271,357 C271,344.297601 281.295816,334 294,334 C306.702399,334 317,344.297601 317,357" id="Fill-21" fill="#C7D8E6"></path>
                                <path d="M333,341 L419,341 M333,358.603595 L376,358.603595 M333,376.207191 L419,376.207191" id="Stroke-22" stroke="#C7D8E6" stroke-width="4.463" stroke-linecap="round" stroke-linejoin="round"></path>
                                <path d="M226.09358,365 L143.90642,365 C141.749222,365 140,363.208875 140,361 C140,358.791125 141.749222,357 143.90642,357 L226.09358,357 C228.252529,357 230,358.791125 230,361 C230,363.208875 228.252529,365 226.09358,365" id="Fill-23" fill="#518BBD"></path>
                                <path d="M226.09358,385 L143.90642,385 C141.749222,385 140,383.208875 140,381.001793 C140,378.791125 141.749222,377 143.90642,377 L226.09358,377 C228.252529,377 230,378.791125 230,381.001793 C230,383.208875 228.252529,385 226.09358,385" id="Fill-24" fill="#518BBD"></path>
                                <path d="M62,43 C62,43 67.6985678,19.1398176 101.183584,23.349318 C101.183584,23.349318 109.570653,-2.46502803 143.219088,0.191872949 C177.635415,2.90762385 179.552509,27.5605494 179.552509,27.5605494 C179.552509,27.5605494 198.790227,19.1398176 211.612444,26.857812 C224.436418,34.5775374 228,43 228,43 L62,43" id="Fill-25" fill="#FFFFFE"></path>
                                <path d="M580,48 C580,48 583.2961,31.4490923 602.659586,34.3696346 C602.659586,34.3696346 607.604615,15.3834816 626.969859,18.3057759 C646.335103,21.2263182 647.982274,37.2901769 647.982274,37.2901769 C647.982274,37.2901769 659.108149,31.4490923 666.523054,36.8031278 C673.939718,42.1589154 676,48 676,48 L580,48" id="Fill-27" fill="#FFFFFE"></path>
                                <polyline id="Fill-28" fill="#2F5595" points="633.451198 500 594 295.720417 597.550522 295 637 499.277822 633.451198 500"></polyline>
                                <polyline id="Fill-29" fill="#2F5595" points="578.449478 500 539 295.720417 542.550522 295 582 499.277822 578.449478 500"></polyline>
                                <polygon id="Fill-30" fill="#2F5595" points="577 481 633 481 633 477 577 477"></polygon>
                                <polygon id="Fill-31" fill="#2F5595" points="572 460 628 460 628 456 572 456"></polygon>
                                <polygon id="Fill-32" fill="#2F5595" points="569 440 625 440 625 436 569 436"></polygon>
                                <polygon id="Fill-33" fill="#2F5595" points="565 419 621 419 621 415 565 415"></polygon>
                                <polygon id="Fill-34" fill="#2F5595" points="559 399 615 399 615 395 559 395"></polygon>
                                <polygon id="Fill-35" fill="#2F5595" points="556 378 612 378 612 374 556 374"></polygon>
                                <polygon id="Fill-36" fill="#2F5595" points="552 357 608 357 608 353 552 353"></polygon>
                                <polygon id="Fill-37" fill="#2F5595" points="549 337 605 337 605 333 549 333"></polygon>
                                <polygon id="Fill-38" fill="#2F5595" points="545 316 601 316 601 312 545 312"></polygon>
                                <path d="M667.92186,290.402278 L667.865174,290.405766 C674.809202,283.264039 671.544446,275.375875 670.284955,272.974371 C670.283184,272.970883 670.281412,272.967395 670.277869,272.962163 C670.036954,272.5 669.861582,272.222702 669.861582,272.222702 L669.923582,272.23491 C667.911231,268.330069 666.754484,263.924696 666.754484,259.247257 C666.754484,251.294565 670.028097,244.097029 675.319375,238.885923 C680.181966,232.54993 676.502694,224.12461 676.502694,224.12461 L676.513323,224.12461 C675.753377,222.005636 675.319375,219.733189 675.319375,217.357846 C675.319375,206.114204 684.578669,197 695.999114,197 C707.421331,197 716.678853,206.114204 716.678853,217.357846 C716.678853,219.733189 716.244852,222.005636 715.484906,224.12461 L715.497306,224.12461 C715.497306,224.12461 711.816263,232.54993 716.678853,238.885923 C721.970132,244.097029 725.245516,251.294565 725.245516,259.247257 C725.245516,263.921208 724.086997,268.323093 722.078189,272.227934 L722.099446,272.222702 C722.099446,272.222702 722.064018,272.280255 722.009103,272.369199 C721.84436,272.688353 721.679616,273.004019 721.500701,273.316197 C720.202239,275.960119 717.6992,283.012901 723.420937,289.626193 C723.598081,289.830242 723.778767,290.029059 723.948825,290.236597 C724.00374,290.292405 724.04094,290.349957 724.094083,290.405766 L724.07814,290.404022 C729.023988,296.473181 732,304.169504 732,312.558199 C732,332.132984 715.881707,348 695.999114,348 C676.116521,348 660,332.132984 660,312.558199 C660,304.16776 662.97424,296.471437 667.92186,290.402278" id="Fill-39" fill="#518BBD"></path>
                                <path d="M687.431255,309.246963 L696.238158,317.916699 L696.238158,287.449374 L685.425425,276.8006 C684.862943,276.247737 684.857637,275.349775 685.413043,274.789869 C685.968449,274.231724 686.872311,274.228202 687.431255,274.779305 L696.238158,283.449041 L696.238158,241.420893 C696.238158,240.635616 696.874929,240 697.665587,240 C698.454476,240 699.093016,240.635616 699.093016,241.420893 L699.093016,266.748706 L707.655823,258.274409 C708.212998,257.721546 709.11686,257.721546 709.675804,258.279691 C710.229441,258.837836 710.229441,259.735798 709.670497,260.290422 L699.093016,270.757843 L699.093016,301.358983 L708.557916,291.844106 C709.108016,291.282439 710.013646,291.282439 710.576128,291.831781 C711.13684,292.382883 711.142147,293.284367 710.586741,293.842512 L699.093016,305.399812 L699.093016,386.579107 C699.093016,387.364384 698.454476,388 697.665587,388 C696.874929,388 696.238158,387.364384 696.238158,386.579107 L696.238158,321.917032 L685.425425,311.266498 C684.862943,310.715396 684.857637,309.815673 685.413043,309.255767 C685.968449,308.697622 686.872311,308.695861 687.431255,309.246963" id="Fill-40" fill="#2F5595"></path>
                                <path d="M678,388 L735,388" id="Stroke-41" stroke="#98BDDA" stroke-width="1.887" stroke-linecap="round" stroke-linejoin="round"></path>
                                <path d="M569.789211,215 L569.687482,202.401979 C569.680215,201.314133 568.366821,200.403578 566.824537,200.415627 L552.73507,200.517182 C549.610536,200.537837 547.056412,198.50501 547.036429,195.986783 L547.000097,191.673265 C546.981932,189.151595 549.506991,187.084343 552.627891,187.060245 L560.984202,187 L561.000552,189.096514 L552.644241,189.156759 C550.742271,189.170529 549.201804,190.29108 549.210887,191.657773 L549.247218,195.971292 C549.258118,197.336264 550.816752,198.439602 552.718721,198.420668 L566.808188,198.319112 C569.598469,198.3019 571.880105,200.126452 571.900088,202.386488 L572,214.984509 L569.789211,215" id="Fill-42" fill="#F9F7F9"></path>
                                <path d="M578.251195,195.841362 L557.835105,195.99982 C554.638487,196.02503 552.026594,193.394256 552.000176,190.122445 C551.975519,186.852435 554.550426,184.182047 557.748805,184.156838 L578.163133,184.00018 C581.363274,183.97497 583.975167,186.605744 583.999824,189.875754 C584.024481,193.145764 581.451336,195.816152 578.251195,195.841362" id="Fill-43" fill="#2F5595"></path>
                                <path d="M571.950468,240.969974 L568.081,240.999937 C566.940654,241.00875 566.01051,240.085174 566,238.937754 L566.630606,215.109835 C566.621848,213.962415 567.53973,213.024738 568.680075,213.015926 L570.930989,213.000063 C572.073086,212.99125 573.00323,213.913064 573.011988,215.062247 L573.999938,238.876064 C574.008696,240.023485 573.092566,240.961161 571.950468,240.969974" id="Fill-44" fill="#272329"></path>
                                <path d="M578.065529,226.508084 C579.993994,229.859192 578.841924,234.136989 575.490902,236.065504 C572.141551,237.99402 567.863864,236.84192 565.933729,233.490811 C564.006934,230.141373 565.157334,225.861906 568.508356,223.933391 C571.859377,222.006545 576.138733,223.158645 578.065529,226.508084" id="Fill-45" fill="#E88461"></path>
                                <polygon id="Fill-46" fill="#E88461" points="482 264 495 264 495 245 482 245"></polygon>
                                <polygon id="Fill-47" fill="#E88461" points="470 508 479 508 479 499 470 499"></polygon>
                                <polygon id="Fill-48" fill="#19171B" points="464 502 483 502 483 495 464 495"></polygon>
                                <polygon id="Fill-49" fill="#E88461" points="499 508 508 508 508 499 499 499"></polygon>
                                <polyline id="Fill-50" fill="#272329" points="489.810252 334 462 334 466.58632 495 481.099746 495 483.357895 362.152356 493.640354 362.152356 495.898504 495 510.41368 495 515 334 489.810252 334"></polyline>
                                <polygon id="Fill-51" fill="#19171B" points="496 502 515 502 515 495 496 495"></polygon>
                                <path d="M474,233.5 C474,235.985665 471.98433,238 469.50086,238 C467.01395,238 465,235.985665 465,233.5 C465,231.014335 467.01395,229 469.50086,229 C471.98433,229 474,231.014335 474,233.5" id="Fill-52" fill="#E88461"></path>
                                <path d="M511,233.5 C511,235.985665 508.985665,238 506.5,238 C504.016055,238 502,235.985665 502,233.5 C502,231.014335 504.016055,229 506.5,229 C508.985665,229 511,231.014335 511,233.5" id="Fill-53" fill="#E88461"></path>
                                <path d="M507,228.50086 C507,238.717008 498.715288,247 488.49914,247 C478.281272,247 470,238.717008 470,228.50086 C470,218.282992 478.281272,210 488.49914,210 C498.715288,210 507,218.282992 507,228.50086" id="Fill-54" fill="#272329"></path>
                                <path d="M515.963474,333 L463.036526,333 L461,274.695809 C461,264.923757 467.487165,257 477.276474,257 L501.723526,257 C511.511087,257 518,264.923757 518,274.695809 L515.963474,333" id="Fill-55" fill="#2F5595"></path>
                                <path d="M475.094098,275.499678 L443.160378,312.967498 L444.616135,310.182038 C444.819184,309.570933 444.800255,308.54954 444.506007,307.851876 C444.223803,307.13517 443.831472,306.743924 443.53034,306.522334 C442.940122,306.098196 442.387761,306.094734 442.004033,306.221109 L443.224046,305.949315 L470.028203,302.175353 C474.336967,301.567711 478.320508,304.592074 478.922771,308.925205 C479.526755,313.261798 476.522322,317.267737 472.211838,317.873648 L445.409402,321.64761 L446.629415,321.375815 C442.633828,322.613605 437.967148,322.042318 434.307108,319.376308 C432.47967,318.050228 430.826027,316.144204 429.846919,313.663431 C428.840279,311.205162 428.743917,308.179068 429.489002,305.746767 C429.793575,304.744417 430.266782,303.840744 430.865604,303.056521 L430.941317,302.957844 L462.47238,263.088884 C465.555968,259.077752 469.758045,259.159117 473.745028,262.259651 C477.733731,265.360186 478.468493,271.12673 475.386625,275.139593 C475.297146,275.253851 475.185297,275.390614 475.094098,275.499678" id="Fill-56" fill="#2F5595"></path>
                                <path d="M543.009199,273 C543.009199,273.006 543.005199,273.014 543.005199,273.021 C543.005199,273.066 542.994199,273.107 543.004199,273.151 C543.004199,273.151 543.009199,273.191 543.010199,273.165 L543.010199,273.066 L543.009199,273" id="Fill-57" fill="#314287"></path>
                                <path d="M546.01,270.001 C546.007,270 546.004,270.001 546,270 L546.033,270.01 C546.042,270.012 546.017,270.003 546.01,270.001" id="Fill-58" fill="#314287"></path>
                                <path d="M547.764565,269.662714 C547.775224,269.671597 547.810753,269.703575 547.796541,269.692916 L547.750354,269.653831 C547.753907,269.657384 547.761012,269.659161 547.764565,269.662714 Z M551.207316,285.509668 C553.283981,284.754628 555.207871,283.521693 556.762261,281.906796 C557.533238,281.094906 558.215393,280.210177 558.787409,279.263268 C559.075193,278.792478 559.31146,278.303923 559.55128,277.813591 L559.71116,277.470714 L559.778665,277.30727 L559.913675,276.983936 L562.128902,271.807027 L566.570016,261.460316 C569.115662,255.677599 573.556775,245.794571 576.789906,238.75227 C577.338828,237.560196 576.772141,236.163816 575.555276,235.677037 L564.257084,231.164564 C563.105947,230.70621 561.80026,231.235626 561.308185,232.376181 C558.252699,239.462896 553.916395,249.098981 551.409831,254.782211 L546.775085,265.043647 L542,275.237573 C542.971716,281.508845 548.15183,279.792684 549.60141,286 C550.146778,285.868534 550.685041,285.70509 551.207316,285.509668 Z" id="Fill-59" fill="#2F5595"></path>
                                <path d="M542.852604,272.24377 C542.835186,272.166351 542.854346,272.09421 542.854346,272.015031 C542.854346,272.002714 542.861313,271.988638 542.861313,271.97808 L542.863055,272.09421 L542.863055,272.268404 C542.861313,272.314152 542.852604,272.24377 542.852604,272.24377 Z M546.945788,270.332912 L542.829961,269.101236 L541.15611,268.615603 L530.557375,265.481867 C523.490971,263.396814 508.058794,258.267761 507.828879,258.216735 C502.298726,256.946349 497.703909,261.427891 497.055966,267.285393 C496.510789,272.219137 500.011768,276.695401 504.801665,277.795112 C511.873294,279.419166 518.943181,281.046738 525.986942,282.771085 L536.719794,285.392797 L539.400395,286.061421 L540.741566,286.395733 L541.622907,286.606878 C542.15415,286.717729 542.68191,286.832099 543.227087,286.891923 C547.069455,287.382834 551.040715,286.175791 554,283.791617 C550.136731,278.829721 550.41019,275.551702 546.945788,270.332912 Z" id="Fill-60" fill="#2F5595"></path>
                                <path d="M495.594309,342 L510,342 L510,351.074541 L502.797154,356 L495.594309,351.242588 L495.594309,342 Z M469,342 L483.405691,342 L483.405691,351.074541 L476.202846,356 L469,351.242588 L469,342 Z" id="Stroke-61" stroke="#4E494D" stroke-width="0.635"></path>
                                <path d="M511.25858,505.239693 L511.493014,514.999812 C511.493014,514.999812 535.042398,521.670846 535.339348,521.670846 C535.636299,521.670846 539,522.758967 539,524.93521 C539,524.93521 496.199199,525.080987 496.348543,524.93521 C496.494413,524.785962 496.018598,514.746437 496.018598,514.746437 C496.018598,514.746437 494.839479,503.209227 511.25858,505.239693" id="Fill-62" fill="#FFFFFE"></path>
                                <path d="M515.002523,521 C515.515187,521 515.951191,520.50393 515.999104,519.845877 L515.99591,515.389342 C516.045419,514.68877 515.63976,514.071213 515.088766,514.00642 C514.518606,513.935552 514.049063,514.45997 514.001151,515.156493 L514.004345,519.615052 C513.953238,520.313601 514.358898,520.931158 514.909892,520.993926 C514.941834,520.997975 514.972178,521 515.002523,521" id="Fill-63" fill="#FFFFFE"></path>
                                <path d="M519.003518,523 C519.514534,523 519.952092,522.503884 520,521.84577 L519.995209,517.384774 C520.044714,516.688187 519.639095,516.070573 519.088155,516.007799 C518.554782,515.928825 518.048556,516.459366 518.000649,517.157978 L518.003842,521.614925 C517.955935,522.313537 518.361554,522.933176 518.910896,522.99595 C518.941238,522.997975 518.973177,523 519.003518,523" id="Fill-64" fill="#FFFFFE"></path>
                                <path d="M524.003525,525 C524.514538,525 524.953689,524.503743 525,523.845444 L524.995209,519.383187 C525.044714,518.688428 524.639097,518.068613 524.088161,518.005822 C523.557985,517.938979 523.050166,518.455491 523.000662,519.156326 L523.003856,523.614533 C522.955948,524.313343 523.359968,524.933157 523.910904,524.995949 C523.942842,524.997974 523.973183,525 524.003525,525" id="Fill-65" fill="#FFFFFE"></path>
                                <path d="M497,525 L498.689508,526.118873 C499.541102,526.68338 500.700501,527 501.907781,527 L534.353854,527 C535.709906,527 536.994137,526.601127 537.855991,525.912676 L539,525 L497,525" id="Fill-66" fill="#272329"></path>
                                <path d="M465.738044,505.239693 L465.505345,514.999812 C465.505345,514.999812 441.957616,521.670846 441.660665,521.670846 C441.363713,521.670846 438,522.758967 438,524.93521 C438,524.93521 480.799214,525.080987 480.651606,524.93521 C480.502262,524.785962 480.981552,514.746437 480.981552,514.746437 C480.981552,514.746437 482.157202,503.209227 465.738044,505.239693" id="Fill-67" fill="#FFFFFE"></path>
                                <path d="M462.996684,521 C462.485897,521 462.048535,520.50393 462.002245,519.845877 L462.003841,515.389342 C461.955955,514.68877 462.361392,514.071213 462.908892,514.00642 C463.481932,513.935552 463.949622,514.45997 463.999104,515.156493 L463.995912,519.615052 C464.045394,520.313601 463.639957,520.931158 463.09086,520.993926 C463.058936,520.997975 463.028608,521 462.996684,521" id="Fill-68" fill="#FFFFFE"></path>
                                <path d="M457.997254,523 C457.484705,523 457.047201,522.503884 457.000896,521.84577 L457.004089,517.384774 C456.954591,516.688187 457.36016,516.070573 457.911031,516.007799 C458.444338,515.928825 458.950501,516.459366 459,517.157978 L458.99521,521.614925 C459.044708,522.313537 458.639139,522.933176 458.086671,522.99595 C458.05793,522.997975 458.025996,523 457.997254,523" id="Fill-69" fill="#FFFFFE"></path>
                                <path d="M453.99713,525 C453.484517,525 453.046959,524.503743 453.000649,523.845444 L453.003842,519.383187 C452.955935,518.688428 453.361554,518.068613 453.910896,518.005822 C454.439479,517.938979 454.948898,518.455491 455,519.156326 L454.995209,523.614533 C455.044714,524.313343 454.639095,524.933157 454.088155,524.995949 C454.057814,524.997974 454.025875,525 453.99713,525" id="Fill-70" fill="#FFFFFE"></path>
                                <path d="M480,525 L478.308782,526.118873 C477.457188,526.68338 476.297789,527 475.090509,527 L442.644436,527 C441.288384,527 440.004153,526.601127 439.142299,525.912676 L438,525 L480,525" id="Fill-71" fill="#272329"></path>
                                <path d="M418.140576,529 L376.859424,529 C375.279592,529 374,527.75287 374,526.215265 L374,481.311626 C374,480.033187 375.063348,479 376.373322,479 L418.624891,479 C419.936652,479 421,480.033187 421,481.311626 L421,526.215265 C421,527.75287 419.720408,529 418.140576,529" id="Fill-72" fill="#FFFFFE"></path>
                                <path d="M421,486 L374,486 L374,481.535568 C374,480.133279 375.063348,479 376.373322,479 L418.624891,479 C419.936652,479 421,480.133279 421,481.535568 L421,486" id="Fill-73" fill="#2F5595"></path>
                                <path d="M408.187843,504 L386.097386,504 C383.013206,504 380.276288,502.236743 379.130684,499.508299 L374.048859,485.153271 C373.885968,484.696257 374.143729,484.200021 374.623451,484.046546 C375.103172,483.891366 375.625854,484.136926 375.786954,484.59394 L380.85088,498.90463 C381.699342,500.920269 383.766799,502.25209 386.097386,502.25209 L408.187843,502.25209 C410.4164,502.25209 412.448056,500.998711 413.362749,499.061516 L419.226807,484.559835 C419.411178,484.107936 419.946389,483.887955 420.411791,484.058483 C420.886142,484.230716 421.120633,484.737184 420.938052,485.189082 L415.054304,499.733395 C413.828151,502.34247 411.139562,504 408.187843,504" id="Fill-74" fill="#4E494D"></path>
                                <path d="M401,482 L401,495" id="Stroke-75" stroke="#2F5595" stroke-width="2.733" stroke-linecap="round" stroke-linejoin="round"></path>
                                <path d="M404,484 L404,486" id="Stroke-76" stroke="#2F5595" stroke-width="4.1" stroke-linecap="round" stroke-linejoin="round"></path>
                                <path d="M355,531 L565,531" id="Stroke-77" stroke="#98BDDA" stroke-width="1.887" stroke-linecap="round" stroke-linejoin="round"></path>
                                <polyline id="Fill-78" fill="#DAE7B4" points="81 505 97.6774886 459 104.627029 459 122 505 81 505"></polyline>
                                <polygon id="Fill-79" fill="#E88461" points="75 512 128 512 128 504 75 504"></polygon>
                                <polyline id="Fill-80" fill="#E88461" points="81 505 97.6774886 459 104.627029 459 122 505 81 505"></polyline>
                                <g id="Group-83" transform="translate(81.000000, 459.000000)">
                                    <mask id="mask-4" fill="white">
                                        <use xlink:href="#path-3"></use>
                                    </mask>
                                    <g id="Clip-82"></g>
                                    <path d="M0.616,23.1963846 L43.18475,12.1687692 M-1.47175,40.9948462 L41.097,29.9654615" id="Stroke-81" stroke="#FFFFFE" stroke-width="3.577" mask="url(#mask-4)"></path>
                                </g>
                                <polyline id="Fill-84" fill="#DAE7B4" points="155 505 171.676772 459 178.627775 459 196 505 155 505"></polyline>
                                <polygon id="Fill-85" fill="#E88461" points="148 512 201 512 201 504 148 504"></polygon>
                                <polyline id="Fill-86" fill="#E88461" points="155 505 171.676772 459 178.627775 459 196 505 155 505"></polyline>
                                <g id="Group-89" transform="translate(155.000000, 459.000000)">
                                    <mask id="mask-6" fill="white">
                                        <use xlink:href="#path-5"></use>
                                    </mask>
                                    <g id="Clip-88"></g>
                                    <path d="M0.266103226,23.1963846 L42.7328452,12.1687692 M-1.81664387,40.9948462 L40.6500981,29.9654615" id="Stroke-87" stroke="#FFFFFE" stroke-width="3.577" mask="url(#mask-6)"></path>
                                </g>
                                <path d="M67,512 L226,512" id="Stroke-90" stroke="#98BDDA" stroke-width="1.887" stroke-linecap="round" stroke-linejoin="round"></path>
                                <path d="M10.3457052,312.473013 L10.2710583,312.476528 C19.3335476,303.112981 15.0733423,292.768792 13.4293331,289.621249 C13.4275558,289.615977 13.4257785,289.608947 13.4222239,289.603675 C13.1040859,288.999121 12.8748133,288.635335 12.8748133,288.635335 L12.9583467,288.651152 C10.3297094,283.530023 8.81899828,277.755132 8.81899828,271.619971 C8.81899828,261.193183 13.0916448,251.755825 20.0018151,244.922966 C26.3503564,236.613873 21.5462951,225.566715 21.5462951,225.566715 L21.5605135,225.566715 C20.5687761,222.786473 20.0018151,219.8094 20.0018151,216.695247 C20.0018151,201.950473 32.0892813,190 46.9991113,190 C61.9107187,190 73.9981849,201.950473 73.9981849,216.695247 C73.9981849,219.8094 73.4312239,222.786473 72.4394865,225.566715 L72.4537049,225.566715 C72.4537049,225.566715 67.6496436,236.613873 73.9981849,244.922966 C80.9065779,251.755825 85.1810017,261.193183 85.1810017,271.619971 C85.1810017,277.74986 83.6720679,283.521236 81.0469852,288.640607 L81.0754221,288.635335 C81.0754221,288.635335 81.0274348,288.709147 80.9563425,288.826894 C80.7412884,289.243403 80.5244569,289.66167 80.2951843,290.067634 C78.5978559,293.535029 75.3311653,302.784343 82.8011874,311.453708 C83.03046,311.720836 83.2650646,311.984449 83.4907826,312.25685 C83.5600976,312.328904 83.6080849,312.404473 83.6791771,312.476528 L83.6560722,312.476528 C90.1148065,320.434137 94,330.523499 94,341.523206 C94,367.192118 72.9566829,388 46.9991113,388 C21.0433171,388 0,367.192118 0,341.523206 C0,330.523499 3.88519352,320.432379 10.3457052,312.473013" id="Fill-91" fill="#518BBD"></path>
                                <path d="M33.0866313,336.36465 L44.2632367,347.556185 L44.2632367,308.233015 L30.5383377,294.491996 C29.8275069,293.779537 29.8188803,292.620046 30.5228098,291.898856 C31.2284646,291.177667 32.3758006,291.174174 33.0866313,291.884886 L44.2632367,303.07293 L44.2632367,248.835279 C44.2632367,247.818978 45.0724105,247 46.0748198,247 C47.0772291,247 47.8881283,247.818978 47.8881283,248.835279 L47.8881283,281.52106 L58.7559018,270.584472 C59.4632819,269.870268 60.6106179,269.870268 61.317998,270.591457 C62.0236528,271.310901 62.0236528,272.470392 61.3110967,273.184597 L47.8881283,286.693369 L47.8881283,326.184176 L59.8980619,313.904744 C60.5985407,313.183554 61.747602,313.178316 62.4618834,313.889028 C63.1727141,314.604979 63.1813407,315.76447 62.4756859,316.48566 L47.8881283,331.400141 L47.8881283,436.164721 C47.8881283,437.179276 47.0772291,438 46.0748198,438 C45.0724105,438 44.2632367,437.179276 44.2632367,436.164721 L44.2632367,352.716271 L30.5383377,338.973505 C29.8275069,338.2593 29.8188803,337.098063 30.5228098,336.378619 C31.2284646,335.655683 32.3758006,335.652191 33.0866313,336.36465" id="Fill-92" fill="#2F5595"></path>
                                <path d="M19,437 L60,437" id="Stroke-93" stroke="#98BDDA" stroke-width="1.887" stroke-linecap="round" stroke-linejoin="round"></path>
                            </g>
                        </g>
                    </g>
                    <path d="M705.068324,1428.61365 L202.830323,908.530975 L61.8637224,762.555787 C71.9785452,752.866026 59.9988581,759.318738 72.7500857,752.042948 C103.788813,734.336563 141.522692,725.025319 179.192485,725.025319 C196.239219,725.025319 213.268151,726.929691 229.663349,730.826804 C294.840049,746.313632 347.897474,790.653237 415.169412,797.712521 C421.706129,798.39886 428.182322,798.724356 434.585528,798.724356 C492.349675,798.724356 544.976303,772.300279 597.875295,745.873255 C650.767167,719.449177 703.929621,693.022154 762.731597,693.022154 C765.528215,693.022154 768.331954,693.081067 771.155275,693.204785 C832.987069,695.882394 886.030253,728.38043 937.898537,756.353927 C980.029391,779.075305 1028.69518,800.145639 1077.53009,800.145639 C1088.81803,800.145639 1100.11131,799.020396 1111.34051,796.529837 C1173.25953,782.794206 1212.43177,732.081657 1269.61025,708.099534 C1292.75044,698.395045 1318.69972,693.508188 1344.63475,693.508188 C1367.35661,693.508188 1390.066,697.256546 1410.88666,704.798918 C1430.20131,711.796343 1426.93618,704.817429 1441.67228,717.283479 L1193.50005,956.940617 L705.068324,1428.61365 Z" id="Fill-28" fill="#FFFFFF" transform="translate(751.768001, 1060.817902) rotate(44.000000) translate(-751.768001, -1060.817902) "></path>
                </g>
            </g>
        </g>
    </g>
</svg>