
<svg width="377px" height="665px" viewBox="0 0 377 665" version="1.1" xmlns="http://www.w3.org/2000/svg" xmlns:xlink="http://www.w3.org/1999/xlink">
    <!-- Generator: Sketch 50.2 (55047) - http://www.bohemiancoding.com/sketch -->
    <desc>Created with Sketch.</desc>
    <defs>
        <rect id="path-1" x="0" y="0" width="377" height="665"></rect>
        <polyline id="path-3" points="0.278666667 20.9507308 7.77733333 0.229384615 10.9020417 0.229384615 18.7134167 20.9507308 0.278666667 20.9507308"></polyline>
        <polyline id="path-5" points="0.123316129 20.9507308 7.78646968 0.229384615 10.980529 0.229384615 18.9632503 20.9507308 0.123316129 20.9507308"></polyline>
    </defs>
    <g id="Page-1" stroke="none" stroke-width="1" fill="none" fill-rule="evenodd">
        <g id="Group-5">
            <mask id="mask-2" fill="white">
                <use xlink:href="#path-1"></use>
            </mask>
            <use id="Mask" fill="#D8D8D8" xlink:href="#path-1"></use>
            <g mask="url(#mask-2)">
                <g transform="translate(-390.000000, -39.000000)">
                    <g id="Group-4" stroke-width="1" fill="none" transform="translate(390.000000, 39.000000)">
                        <rect id="Rectangle-2" fill="#C7D8E6" x="0" y="0" width="377" height="665"></rect>
                        <g id="Group" transform="translate(20.000000, 90.000000)">
                            <path d="M43,200 L314,200" id="Stroke-4" stroke="#98BDDA" stroke-width="1.887" stroke-linecap="round" stroke-linejoin="round"></path>
                            <polygon id="Fill-5" fill="#F9F7F9" points="54 200 292 200 292 52 54 52"></polygon>
                            <polygon id="Fill-6" fill="#2F5595" points="54 200 114 200 114 52 54 52"></polygon>
                            <path d="M286.364,38 L59.636,38 C56.5229341,38 54,40.4680899 54,43.5134831 L54,52 L292,52 L292,43.5134831 C292,40.4680899 289.476262,38 286.364,38" id="Fill-7" fill="#518BBD"></path>
                            <path d="M73,45.0004174 C73,46.6575762 71.6567413,48 70.0004174,48 C68.3432587,48 67,46.6575762 67,45.0004174 C67,43.3432587 68.3432587,42 70.0004174,42 C71.6567413,42 73,43.3432587 73,45.0004174" id="Fill-8" fill="#C7D8E6"></path>
                            <path d="M82,45.0004174 C82,46.6575762 80.6567413,48 79.0004174,48 C77.3432587,48 76,46.6575762 76,45.0004174 C76,43.3432587 77.3432587,42 79.0004174,42 C80.6567413,42 82,43.3432587 82,45.0004174" id="Fill-9" fill="#DEC851"></path>
                            <path d="M90,45.0004174 C90,46.6575762 88.6575762,48 87.0004174,48 C85.3432587,48 84,46.6575762 84,45.0004174 C84,43.3432587 85.3432587,42 87.0004174,42 C88.6575762,42 90,43.3432587 90,45.0004174" id="Fill-10" fill="#C7D8E6"></path>
                            <path d="M104,87 C104,97.4937577 95.4937577,106 85.0008096,106 C74.5070519,106 66,97.4937577 66,87 C66,76.5070519 74.5070519,68 85.0008096,68 C95.4937577,68 104,76.5070519 104,87" id="Fill-11" fill="#518BBD"></path>
                            <path d="M89,82.999601 C89,85.7607533 86.7607533,88 84.000399,88 C81.2392467,88 79,85.7607533 79,82.999601 C79,80.2392467 81.2392467,78 84.000399,78 C86.7607533,78 89,80.2392467 89,82.999601" id="Fill-12" fill="#2F5595"></path>
                            <path d="M73,95 L74.8135102,91.8946066 C75.8545248,90.1118258 77.874464,89 80.0726093,89 L87.4266393,89 C89.4102921,89 91.2657332,89.907719 92.3752886,91.4210787 L95,95 L73,95" id="Fill-13" fill="#2F5595"></path>
                            <polygon id="Fill-14" fill="#C7D8E6" points="225 125 282 125 282 68 225 68"></polygon>
                            <polygon id="Fill-15" fill="#C7D8E6" points="225 185 282 185 282 135 225 135"></polygon>
                            <polygon id="Fill-16" fill="#3B6AA5" points="255 85 266 85 266 68 255 68"></polygon>
                            <path d="M145,82.5 C145,88.2989211 140.298921,93 134.5,93 C128.700264,93 124,88.2989211 124,82.5 C124,76.7010789 128.700264,72 134.5,72 C140.298921,72 145,76.7010789 145,82.5" id="Fill-17" fill="#C7D8E6"></path>
                            <path d="M153,74 L192,74 M153,82.0877065 L172.5,82.0877065 M153,90.1762369 L192,90.1762369" id="Stroke-18" stroke="#C7D8E6" stroke-width="4.463" stroke-linecap="round" stroke-linejoin="round"></path>
                            <path d="M145,122.500408 C145,128.299554 140.298921,133 134.5,133 C128.700264,133 124,128.299554 124,122.500408 C124,116.700446 128.700264,112 134.5,112 C140.298921,112 145,116.700446 145,122.500408" id="Fill-19" fill="#C7D8E6"></path>
                            <path d="M153,116 L192,116 M153,124.088138 L172.5,124.088138 M153,132.176277 L192,132.176277" id="Stroke-20" stroke="#C7D8E6" stroke-width="4.463" stroke-linecap="round" stroke-linejoin="round"></path>
                            <path d="M145,163.5 C145,169.298921 140.298921,174 134.5,174 C128.700264,174 124,169.298921 124,163.5 C124,157.701079 128.700264,153 134.5,153 C140.298921,153 145,157.701079 145,163.5" id="Fill-21" fill="#C7D8E6"></path>
                            <path d="M153,156 L192,156 M153,164.088138 L172.5,164.088138 M153,172.176277 L192,172.176277" id="Stroke-22" stroke="#C7D8E6" stroke-width="4.463" stroke-linecap="round" stroke-linejoin="round"></path>
                            <path d="M103.220409,168 L65.7795914,168 C64.7968677,168 64,167.104437 64,166 C64,164.895563 64.7968677,164 65.7795914,164 L103.220409,164 C104.20393,164 105,164.895563 105,166 C105,167.104437 104.20393,168 103.220409,168" id="Fill-23" fill="#518BBD"></path>
                            <path d="M103.220409,177 L65.7795914,177 C64.7968677,177 64,176.104437 64,175.000896 C64,173.895563 64.7968677,173 65.7795914,173 L103.220409,173 C104.20393,173 105,173.895563 105,175.000896 C105,176.104437 104.20393,177 103.220409,177" id="Fill-24" fill="#518BBD"></path>
                            <path d="M28,20 C28,20 30.6089828,8.90224074 45.9394722,10.8601479 C45.9394722,10.8601479 49.779335,-1.14652467 65.1846426,0.0892432319 C80.9415152,1.35238319 81.8192211,12.8188602 81.8192211,12.8188602 C81.8192211,12.8188602 90.6268511,8.90224074 96.4972637,12.4920056 C102.368481,16.0825755 104,20 104,20 L28,20" id="Fill-25" fill="#FFFFFE"></path>
                            <path d="M266,22 C266,22 267.510712,14.2762431 276.385644,15.6391628 C276.385644,15.6391628 278.652115,6.77895808 287.527852,8.14269541 C296.403589,9.50561515 297.158542,17.0020825 297.158542,17.0020825 C297.158542,17.0020825 302.257901,14.2762431 305.6564,16.774793 C309.055704,19.2741605 310,22 310,22 L266,22" id="Fill-27" fill="#FFFFFE"></path>
                            <polyline id="Fill-28" fill="#2F5595" points="290.349394 229 272 135.330338 273.651405 135 292 228.668855 290.349394 229"></polyline>
                            <polyline id="Fill-29" fill="#2F5595" points="265.348595 229 247 135.330338 248.651405 135 267 228.668855 265.348595 229"></polyline>
                            <polygon id="Fill-30" fill="#2F5595" points="265 221 291 221 291 219 265 219"></polygon>
                            <polygon id="Fill-31" fill="#2F5595" points="262 211 288 211 288 209 262 209"></polygon>
                            <polygon id="Fill-32" fill="#2F5595" points="261 202 287 202 287 200 261 200"></polygon>
                            <polygon id="Fill-33" fill="#2F5595" points="259 192 285 192 285 190 259 190"></polygon>
                            <polygon id="Fill-34" fill="#2F5595" points="256 183 282 183 282 181 256 181"></polygon>
                            <polygon id="Fill-35" fill="#2F5595" points="255 174 281 174 281 172 255 172"></polygon>
                            <polygon id="Fill-36" fill="#2F5595" points="253 164 279 164 279 162 253 162"></polygon>
                            <polygon id="Fill-37" fill="#2F5595" points="252 155 278 155 278 153 252 153"></polygon>
                            <polygon id="Fill-38" fill="#2F5595" points="250 145 276 145 276 143 250 143"></polygon>
                            <path d="M306.630853,132.680511 L306.604871,132.682105 C309.787551,129.418667 308.291204,125.814142 307.713938,124.716766 C307.713126,124.715172 307.712314,124.713578 307.71069,124.711187 C307.600271,124.5 307.519892,124.373288 307.519892,124.373288 L307.548309,124.378866 C306.625981,122.594535 306.095805,120.581483 306.095805,118.444111 C306.095805,114.810099 307.596211,111.521159 310.02138,109.139925 C312.250068,106.24467 310.563735,102.394689 310.563735,102.394689 L310.568606,102.394689 C310.220298,101.426417 310.02138,100.388014 310.02138,99.3025918 C310.02138,94.1647687 314.265223,90 319.499594,90 C324.734777,90 328.977808,94.1647687 328.977808,99.3025918 C328.977808,100.388014 328.77889,101.426417 328.430582,102.394689 L328.436265,102.394689 C328.436265,102.394689 326.74912,106.24467 328.977808,109.139925 C331.402977,111.521159 332.904195,114.810099 332.904195,118.444111 C332.904195,120.57989 332.373207,122.591347 331.452503,124.375679 L331.462246,124.373288 C331.462246,124.373288 331.446008,124.399587 331.420839,124.44023 C331.345332,124.586069 331.269824,124.730313 331.187821,124.872964 C330.592693,126.081114 329.445467,129.303908 332.06793,132.325876 C332.14912,132.419117 332.231935,132.509967 332.309878,132.604802 C332.335047,132.630304 332.352097,132.656603 332.376455,132.682105 L332.369147,132.681308 C334.635995,135.454633 336,138.971495 336,142.80474 C336,151.749509 328.612449,159 319.499594,159 C310.386739,159 303,151.749509 303,142.80474 C303,138.970698 304.363194,135.453836 306.630853,132.680511" id="Fill-39" fill="#518BBD"></path>
                            <path d="M315.122118,141.816172 L319.186842,145.799565 L319.186842,131.801064 L314.19635,126.908384 C313.936743,126.654365 313.934294,126.241788 314.190635,125.984534 C314.446977,125.728089 314.864144,125.726471 315.122118,125.97968 L319.186842,129.963073 L319.186842,110.652843 C319.186842,110.29204 319.480736,110 319.845656,110 C320.209758,110 320.504469,110.29204 320.504469,110.652843 L320.504469,122.289946 L324.456534,118.39635 C324.713691,118.142332 325.130858,118.142332 325.388832,118.398777 C325.644357,118.655222 325.644357,119.067799 325.386383,119.322626 L320.504469,124.131982 L320.504469,138.191965 L324.872884,133.820265 C325.126777,133.562202 325.54476,133.562202 325.804367,133.814602 C326.063157,134.067811 326.065606,134.482006 325.809265,134.738451 L320.504469,140.048562 L320.504469,177.347157 C320.504469,177.70796 320.209758,178 319.845656,178 C319.480736,178 319.186842,177.70796 319.186842,177.347157 L319.186842,147.637555 L314.19635,142.744067 C313.936743,142.490857 313.934294,142.077471 314.190635,141.820217 C314.446977,141.563772 314.864144,141.562963 315.122118,141.816172" id="Fill-40" fill="#2F5595"></path>
                            <path d="M311,178 L337,178" id="Stroke-41" stroke="#98BDDA" stroke-width="1.887" stroke-linecap="round" stroke-linejoin="round"></path>
                            <path d="M261.027253,99 L260.982492,93.150919 C260.979295,92.6458474 260.401401,92.2230897 259.722796,92.2286838 L253.523431,92.2758345 C252.148636,92.2854245 251.024821,91.3416119 251.016029,90.172435 L251.000043,88.1697301 C250.99205,86.9989549 252.103076,86.039159 253.476272,86.0279707 L257.153049,86 L257.160243,86.9733817 L253.483466,87.0013524 C252.646599,87.0077457 251.968794,87.5280015 251.97279,88.1625377 L251.988776,90.1652425 C251.993572,90.7989795 252.679371,91.3112436 253.516237,91.3024528 L259.715603,91.2553021 C260.943326,91.2473105 261.947246,92.0944243 261.956039,93.1437266 L262,98.9928075 L261.027253,99" id="Fill-42" fill="#F9F7F9"></path>
                            <path d="M265.305247,89.9206808 L255.735206,89.9999102 C254.236791,90.0125148 253.012466,88.697128 253.000082,87.0612227 C252.988524,85.4262176 254.195512,84.0910235 255.694752,84.0784188 L265.263969,84.0000898 C266.764035,83.9874852 267.98836,85.302872 267.999918,86.937877 C268.011476,88.5728821 266.805314,89.9080762 265.305247,89.9206808" id="Fill-43" fill="#2F5595"></path>
                            <path d="M262.975234,110.986059 L261.0405,110.999971 C260.470327,111.004063 260.005255,110.575259 260,110.042528 L260.315303,98.9795664 C260.310924,98.4468356 260.769865,98.0114857 261.340038,98.007394 L262.465494,98.0000291 C263.036543,97.9959375 263.501615,98.4239225 263.505994,98.9574716 L263.999969,110.013887 C264.004348,110.546618 263.546283,110.981968 262.975234,110.986059" id="Fill-44" fill="#272329"></path>
                            <path d="M264.599512,103.503464 C265.425997,104.939654 264.932253,106.772995 263.496101,107.599502 C262.060665,108.426008 260.22737,107.932251 259.40017,106.496062 C258.5744,105.060588 259.067429,103.226531 260.503581,102.400025 C261.939733,101.574234 263.773743,102.067991 264.599512,103.503464" id="Fill-45" fill="#E88461"></path>
                            <polygon id="Fill-46" fill="#E88461" points="221 121 227 121 227 112 221 112"></polygon>
                            <polygon id="Fill-47" fill="#E88461" points="215 233 219 233 219 229 215 229"></polygon>
                            <polygon id="Fill-48" fill="#19171B" points="213 230 222 230 222 227 213 227"></polygon>
                            <polygon id="Fill-49" fill="#E88461" points="229 233 233 233 233 229 229 229"></polygon>
                            <polyline id="Fill-50" fill="#272329" points="224.593322 153 212 153 214.076824 227 220.648941 227 221.6715 165.939592 226.327708 165.939592 227.350266 227 233.923176 227 236 153 224.593322 153"></polyline>
                            <polygon id="Fill-51" fill="#19171B" points="227 230 236 230 236 227 227 227"></polygon>
                            <path d="M217,107 C217,108.10474 216.104147,109 215.000382,109 C213.895089,109 213,108.10474 213,107 C213,105.89526 213.895089,105 215.000382,105 C216.104147,105 217,105.89526 217,107" id="Fill-52" fill="#E88461"></path>
                            <path d="M234,107 C234,108.10474 233.10474,109 232,109 C230.896024,109 230,108.10474 230,107 C230,105.89526 230.896024,105 232,105 C233.10474,105 234,105.89526 234,107" id="Fill-53" fill="#E88461"></path>
                            <path d="M232,104.500395 C232,109.194301 228.193511,113 223.499605,113 C218.804909,113 215,109.194301 215,104.500395 C215,99.8056989 218.804909,96 223.499605,96 C228.193511,96 232,99.8056989 232,104.500395" id="Fill-54" fill="#272329"></path>
                            <path d="M236.071058,153 L211.928942,153 L211,126.149386 C211,121.649099 213.959058,118 218.424357,118 L229.575643,118 C234.040145,118 237,121.649099 237,126.149386 L236.071058,153" id="Fill-55" fill="#2F5595"></path>
                            <path d="M218.203285,125.999854 L203.513774,142.920806 L204.183422,141.662856 C204.276824,141.386873 204.268117,140.925599 204.132763,140.610525 C204.00295,140.286851 203.822477,140.110159 203.683956,140.010086 C203.412456,139.81854 203.15837,139.816976 202.981855,139.874049 L203.543061,139.751303 L215.872973,138.046934 C217.855005,137.772515 219.687434,139.138356 219.964475,141.095254 C220.242307,143.053715 218.860268,144.862849 216.877445,145.136486 L204.548325,146.840856 L205.109531,146.71811 C203.271561,147.277112 201.124888,147.019111 199.44127,145.815107 C198.600648,145.216232 197.839972,144.355447 197.389583,143.235098 C196.926528,142.124912 196.882202,140.758289 197.224941,139.65983 C197.365045,139.207156 197.58272,138.799046 197.858178,138.444881 L197.893006,138.400317 L212.397295,120.39498 C213.815745,118.583501 215.748701,118.620246 217.582713,120.020488 C219.417516,121.420729 219.755507,124.024975 218.337848,125.837236 C218.296687,125.888836 218.245237,125.9506 218.203285,125.999854" id="Fill-56" fill="#2F5595"></path>
                            <path d="M249.0046,125 C249.0046,125.003 249.0026,125.007 249.0026,125.0105 C249.0026,125.033 248.9971,125.0535 249.0021,125.0755 C249.0021,125.0755 249.0046,125.0955 249.0051,125.0825 L249.0051,125.033 L249.0046,125" id="Fill-57" fill="#314287"></path>
                            <path d="M250.005,124.0005 C250.0035,124 250.002,124.0005 250,124 L250.0165,124.005 C250.021,124.006 250.0085,124.0015 250.005,124.0005" id="Fill-58" fill="#314287"></path>
                            <path d="M251.63523,123.573961 C251.640102,123.577999 251.656344,123.592534 251.649847,123.587689 L251.628733,123.569923 C251.630357,123.571538 251.633606,123.572346 251.63523,123.573961 Z M253.209059,130.777122 C254.158391,130.433922 255.037884,129.873497 255.748462,129.139453 C256.100909,128.770412 256.412751,128.368262 256.674244,127.937849 C256.805802,127.723854 256.91381,127.501783 257.023442,127.278905 L257.09653,127.123052 L257.12739,127.048759 L257.189109,126.901789 L258.201784,124.548649 L260.232007,119.845598 C261.395731,117.217091 263.425954,112.724805 264.903957,109.523759 C265.154893,108.981907 264.895836,108.347189 264.339555,108.125926 L259.174667,106.074802 C258.648433,105.866459 258.051547,106.107103 257.826599,106.625537 C256.429805,109.846771 254.447495,114.22681 253.301637,116.810096 L251.182896,121.474385 L249,126.107988 C249.444213,128.958566 251.812265,128.178493 252.47493,131 C252.724242,130.940243 252.970305,130.86595 253.209059,130.777122 Z" id="Fill-59" fill="#2F5595"></path>
                            <path d="M248.915223,124.385138 C248.907278,124.350433 248.916017,124.318094 248.916017,124.2826 C248.916017,124.277079 248.919195,124.270769 248.919195,124.266036 L248.91999,124.318094 L248.91999,124.396181 C248.919195,124.416689 248.915223,124.385138 248.915223,124.385138 Z M250.782289,123.528547 L248.904894,122.976416 L248.141383,122.758719 L243.306873,121.35394 C240.083601,120.419262 233.044362,118.120031 232.939489,118.097157 C230.416963,117.527673 228.321081,119.536641 228.025528,122.162417 C227.776851,124.374096 229.373789,126.380697 231.558654,126.873671 C234.78431,127.601695 238.009171,128.331296 241.222114,129.10428 L246.117801,130.27953 L247.340531,130.579258 L247.952293,130.729122 L248.354308,130.823773 C248.59663,130.873465 248.837362,130.924734 249.08604,130.951552 C250.838699,131.171615 252.650151,130.630527 254,129.561759 C252.237807,127.337461 252.362543,125.868004 250.782289,123.528547 Z" id="Fill-60" fill="#2F5595"></path>
                            <path d="M227.324192,157 L234,157 L234,160.889089 L230.662096,163 L227.324192,160.961109 L227.324192,157 Z M215,157 L221.675808,157 L221.675808,160.889089 L218.337904,163 L215,160.961109 L215,157 Z" id="Stroke-61" stroke="#4E494D" stroke-width="0.635"></path>
                            <path d="M234.097014,232.107862 L234.206053,236.499915 C234.206053,236.499915 245.159255,239.501881 245.297371,239.501881 C245.435488,239.501881 247,239.991535 247,240.970845 C247,240.970845 227.092651,241.036444 227.162113,240.970845 C227.22996,240.903683 227.00865,236.385897 227.00865,236.385897 C227.00865,236.385897 226.460223,231.194152 234.097014,232.107862" id="Fill-62" fill="#FFFFFE"></path>
                            <path d="M236.501261,239 C236.757594,239 236.975596,238.787398 236.999552,238.505376 L236.997955,236.595432 C237.02271,236.295187 236.81988,236.03052 236.544383,236.002751 C236.259303,235.97238 236.024532,236.19713 236.000575,236.49564 L236.002172,238.406451 C235.976619,238.705829 236.179449,238.970496 236.454946,238.997397 C236.470917,238.999132 236.486089,239 236.501261,239" id="Fill-63" fill="#FFFFFE"></path>
                            <path d="M238.501759,240 C238.757267,240 238.976046,239.787379 239,239.50533 L238.997605,237.593475 C239.022357,237.294937 238.819547,237.030245 238.544078,237.003342 C238.277391,236.969497 238.024278,237.196871 238.000324,237.496276 L238.001921,239.406396 C237.977967,239.705802 238.180777,239.971361 238.455448,239.998264 C238.470619,239.999132 238.486588,240 238.501759,240" id="Fill-64" fill="#FFFFFE"></path>
                            <path d="M240.501762,241 C240.757269,241 240.976845,240.787319 241,240.50519 L240.997605,238.592794 C241.022357,238.29504 240.819549,238.029406 240.544081,238.002495 C240.278993,237.973848 240.025083,238.19521 240.000331,238.495568 L240.001928,240.406228 C239.977974,240.705718 240.179984,240.971353 240.455452,240.998264 C240.471421,240.999132 240.486592,241 240.501762,241" id="Fill-65" fill="#FFFFFE"></path>
                            <path d="M228,241 L228.764301,241.559437 C229.149546,241.84169 229.674036,242 230.220186,242 L244.898172,242 C245.511624,242 246.092586,241.800563 246.482472,241.456338 L247,241 L228,241" id="Fill-66" fill="#272329"></path>
                            <path d="M213.901416,232.107862 L213.793184,236.499915 C213.793184,236.499915 202.840752,239.501881 202.702635,239.501881 C202.564518,239.501881 201,239.991535 201,240.970845 C201,240.970845 220.906611,241.036444 220.837956,240.970845 C220.768494,240.903683 220.99142,236.385897 220.99142,236.385897 C220.99142,236.385897 221.538234,231.194152 213.901416,232.107862" id="Fill-67" fill="#FFFFFE"></path>
                            <path d="M212.498342,239 C212.242948,239 212.024267,238.787398 212.001122,238.505376 L212.00192,236.595432 C211.977977,236.295187 212.180696,236.03052 212.454446,236.002751 C212.740966,235.97238 212.974811,236.19713 212.999552,236.49564 L212.997956,238.406451 C213.022697,238.705829 212.819978,238.970496 212.54543,238.997397 C212.529468,238.999132 212.514304,239 212.498342,239" id="Fill-68" fill="#FFFFFE"></path>
                            <path d="M210.498627,240 C210.242352,240 210.0236,239.787379 210.000448,239.50533 L210.002045,237.593475 C209.977295,237.294937 210.18008,237.030245 210.455516,237.003342 C210.722169,236.969497 210.975251,237.196871 211,237.496276 L210.997605,239.406396 C211.022354,239.705802 210.81957,239.971361 210.543336,239.998264 C210.528965,239.999132 210.512998,240 210.498627,240" id="Fill-69" fill="#FFFFFE"></path>
                            <path d="M208.498565,241 C208.242259,241 208.02348,240.787319 208.000324,240.50519 L208.001921,238.592794 C207.977967,238.29504 208.180777,238.029406 208.455448,238.002495 C208.719739,237.973848 208.974449,238.19521 209,238.495568 L208.997605,240.406228 C209.022357,240.705718 208.819547,240.971353 208.544078,240.998264 C208.528907,240.999132 208.512938,241 208.498565,241" id="Fill-70" fill="#FFFFFE"></path>
                            <path d="M220,241 L219.234925,241.559437 C218.84968,241.84169 218.32519,242 217.77904,242 L203.101055,242 C202.487602,242 201.906641,241.800563 201.516754,241.456338 L201,241 L220,241" id="Fill-71" fill="#272329"></path>
                            <path d="M191.661546,243 L172.338454,243 C171.598958,243 171,242.42632 171,241.719022 L171,221.063348 C171,220.475266 171.497738,220 172.110917,220 L191.888247,220 C192.502262,220 193,220.475266 193,221.063348 L193,241.719022 C193,242.42632 192.401042,243 191.661546,243" id="Fill-72" fill="#FFFFFE"></path>
                            <path d="M193,223 L171,223 L171,221.086672 C171,220.485691 171.497738,220 172.110917,220 L191.888247,220 C192.502262,220 193,220.485691 193,221.086672 L193,223" id="Fill-73" fill="#2F5595"></path>
                            <path d="M187.00282,231 L176.662606,231 C175.218948,231 173.937837,230.206534 173.401597,228.978734 L171.02287,222.518972 C170.946623,222.313316 171.067277,222.090009 171.291828,222.020946 C171.516378,221.951115 171.761038,222.061617 171.836447,222.267273 L174.206795,228.707084 C174.603947,229.614121 175.571693,230.213441 176.662606,230.213441 L187.00282,230.213441 C188.045975,230.213441 188.996963,229.64942 189.425117,228.777682 L192.169995,222.251926 C192.256296,222.048571 192.506821,221.94958 192.724668,222.026317 C192.946705,222.103822 193.056467,222.331733 192.971003,222.535087 L190.216908,229.080028 C189.642964,230.254112 188.384476,231 187.00282,231" id="Fill-74" fill="#4E494D"></path>
                            <path d="M184,221 L184,227" id="Stroke-75" stroke="#2F5595" stroke-width="2.733" stroke-linecap="round" stroke-linejoin="round"></path>
                            <path d="M185,222 L185,223" id="Stroke-76" stroke="#2F5595" stroke-width="4.1" stroke-linecap="round" stroke-linejoin="round"></path>
                            <path d="M163,244 L259,244" id="Stroke-77" stroke="#98BDDA" stroke-width="1.887" stroke-linecap="round" stroke-linejoin="round"></path>
                            <polyline id="Fill-78" fill="#DAE7B4" points="37 232 44.7285923 211 47.9491111 211 56 232 37 232"></polyline>
                            <polygon id="Fill-79" fill="#E88461" points="34 235 58 235 58 231 34 231"></polygon>
                            <polyline id="Fill-80" fill="#E88461" points="37 232 44.7285923 211 47.9491111 211 56 232 37 232"></polyline>
                            <g id="Group-83" transform="translate(37.000000, 211.000000)">
                                <mask id="mask-4" fill="white">
                                    <use xlink:href="#path-3"></use>
                                </mask>
                                <g id="Clip-82"></g>
                                <path d="M0.278666667,10.5896538 L19.5359583,5.55530769 M-0.665791667,18.7150385 L18.5915,13.6798846" id="Stroke-81" stroke="#FFFFFE" stroke-width="3.577" mask="url(#mask-4)"></path>
                            </g>
                            <polyline id="Fill-84" fill="#DAE7B4" points="71 232 78.7282604 211 81.9494568 211 90 232 71 232"></polyline>
                            <polygon id="Fill-85" fill="#E88461" points="68 235 92 235 92 231 68 231"></polygon>
                            <polyline id="Fill-86" fill="#E88461" points="71 232 78.7282604 211 81.9494568 211 90 232 71 232"></polyline>
                            <g id="Group-89" transform="translate(71.000000, 211.000000)">
                                <mask id="mask-6" fill="white">
                                    <use xlink:href="#path-5"></use>
                                </mask>
                                <g id="Clip-88"></g>
                                <path d="M0.123316129,10.5896538 L19.8030258,5.55530769 M-0.841859355,18.7150385 L18.8378503,13.6798846" id="Stroke-87" stroke="#FFFFFE" stroke-width="3.577" mask="url(#mask-6)"></path>
                            </g>
                            <path d="M31,235 L104,235" id="Stroke-90" stroke="#98BDDA" stroke-width="1.887" stroke-linecap="round" stroke-linejoin="round"></path>
                            <path d="M4.73260981,143.288102 L4.69846282,143.289717 C8.84406966,138.986269 6.89525232,134.232122 6.14320558,132.785523 C6.14239256,132.7831 6.14157953,132.77987 6.13995349,132.777446 C5.99442228,132.499596 5.88954225,132.332401 5.88954225,132.332401 L5.92775435,132.339671 C4.72529259,129.986021 4.03422262,127.331904 4.03422262,124.512209 C4.03422262,119.720099 5.98873112,115.382728 9.14976649,112.242373 C12.0538864,108.423548 9.85628392,103.346319 9.85628392,103.346319 L9.8627881,103.346319 C9.40912099,102.068531 9.14976649,100.70028 9.14976649,99.2690276 C9.14976649,92.4923889 14.6791393,87 21.4995935,87 C28.3208607,87 33.8502335,92.4923889 33.8502335,99.2690276 C33.8502335,100.70028 33.590879,102.068531 33.1372119,103.346319 L33.1437161,103.346319 C33.1437161,103.346319 30.9461136,108.423548 33.8502335,112.242373 C37.0104559,115.382728 38.9657774,119.720099 38.9657774,124.512209 C38.9657774,127.329481 38.2755204,129.981982 37.0746847,132.334824 L37.0876931,132.332401 C37.0876931,132.332401 37.0657415,132.366325 37.0332205,132.420441 C36.9348447,132.611867 36.8356558,132.804101 36.7307758,132.99068 C35.9543383,134.584281 34.4600011,138.835228 37.8771389,142.819633 C37.9820189,142.942404 38.089338,143.06356 38.192592,143.188754 C38.2242999,143.22187 38.2462516,143.256601 38.2787725,143.289717 L38.2682032,143.289717 C41.2227306,146.947002 43,151.584032 43,156.639453 C43,168.436782 33.3738017,178 21.4995935,178 C9.62619826,178 0,168.436782 0,156.639453 C0,151.584032 1.77726938,146.946194 4.73260981,143.288102" id="Fill-91" fill="#518BBD"></path>
                            <path d="M15.4030142,154.173242 L20.4832894,159.329551 L20.4832894,141.21207 L14.2446989,134.881129 C13.9215941,134.552876 13.9176729,134.01866 14.2376408,133.686384 C14.558393,133.354108 15.0799093,133.352499 15.4030142,133.679948 L20.4832894,138.834648 L20.4832894,113.845574 C20.4832894,113.37733 20.8510957,113 21.3067363,113 C21.7623769,113 22.1309674,113.37733 22.1309674,113.845574 L22.1309674,128.904991 L27.0708645,123.866144 C27.3924009,123.537087 27.9139172,123.537087 28.2354536,123.869362 C28.5562058,124.200834 28.5562058,124.73505 28.2323167,125.064107 L22.1309674,131.288044 L22.1309674,149.482762 L27.5900281,143.825222 C27.9084276,143.492947 28.4307282,143.490533 28.7554015,143.817982 C29.0785064,144.147844 29.0824276,144.68206 28.7616754,145.014335 L22.1309674,151.885929 L22.1309674,200.154426 C22.1309674,200.621865 21.7623769,201 21.3067363,201 C20.8510957,201 20.4832894,200.621865 20.4832894,200.154426 L20.4832894,161.706973 L14.2446989,155.375227 C13.9215941,155.04617 13.9176729,154.511149 14.2376408,154.179678 C14.558393,153.846598 15.0799093,153.844989 15.4030142,154.173242" id="Fill-92" fill="#2F5595"></path>
                            <path d="M9,200 L28,200" id="Stroke-93" stroke="#98BDDA" stroke-width="1.887" stroke-linecap="round" stroke-linejoin="round"></path>
                        </g>
                    </g>
                    <path d="M542.616783,855.491875 L156.097123,455.23905 L47.6099874,342.897333 C55.3943005,335.440145 46.1747979,340.406117 55.9880739,334.806709 C79.8753113,321.17997 108.915101,314.014087 137.90557,314.014087 C151.024645,314.014087 164.13002,315.479681 176.747676,318.478878 C226.907313,330.397458 267.740021,364.520979 319.512142,369.953766 C324.542765,370.481969 329.526807,370.732469 334.45468,370.732469 C378.909657,370.732469 419.410826,350.396641 460.121606,330.058546 C500.826905,309.722718 541.740443,289.384623 586.994127,289.384623 C589.146389,289.384623 591.304132,289.429963 593.476944,289.525175 C641.06236,291.585848 681.884108,316.596162 721.80166,338.124415 C754.225338,355.610665 791.678268,371.82628 829.261348,371.82628 C837.948488,371.82628 846.639738,370.960299 855.281668,369.043578 C902.934213,358.472711 933.080959,319.444606 977.085207,300.988094 C994.893775,293.519571 1014.8642,289.758673 1034.82366,289.758673 C1052.31028,289.758673 1069.78731,292.643389 1085.81077,298.447958 C1100.67522,303.833138 1098.1624,298.462204 1109.50322,308.056008 L918.511206,492.49485 L542.616783,855.491875 Z" id="Fill-28" fill="#FFFFFF" transform="translate(578.556603, 572.438249) rotate(44.000000) translate(-578.556603, -572.438249) "></path>
                </g>
            </g>
        </g>
    </g>
</svg>