
<svg width="159px" height="335px" viewBox="0 0 159 335" version="1.1" xmlns="http://www.w3.org/2000/svg" xmlns:xlink="http://www.w3.org/1999/xlink">
    <!-- Generator: Sketch 50.2 (55047) - http://www.bohemiancoding.com/sketch -->
    <desc>Created with Sketch.</desc>
    <defs>
        <path d="M158.712,26.736 L158.712,65.452 C158.712,79.8 147.081,91.432 132.733,91.432 L116.737,91.432 L102.571,122.757 L98.187,91.432 L26.656,91.432 C12.308,91.432 0.677,79.8 0.677,65.452 L0.677,26.736 C0.677,12.388 12.308,0.757 26.656,0.757 L132.733,0.757 C147.081,0.757 158.712,12.388 158.712,26.736" id="path-1"></path>
    </defs>
    <g id="Page-1" stroke="none" stroke-width="1" fill="none" fill-rule="evenodd">
        <g id="Group-4">
            <g id="Group-7">
                <g id="Group" transform="translate(29.000000, 115.000000)">
                    <path d="M65.9815031,51.6829469 L65.9815031,61.554986 C62.4914264,65.4619832 59.9633282,65.9837151 58.3941104,63.1197207 L58.3941104,51.6829469 L65.9815031,51.6829469" id="Fill-115" fill="#E18774"></path>
                    <path d="M11.8783436,67.9561872 L11.2618098,74.044595 C11.7017485,75.1352235 11.9898773,76.1451955 12.1230982,77.0746648 C12.295046,78.3832961 12.1463344,79.5307682 11.6785123,80.517081 L14.9486196,84.9980447 L10.372638,89.2371927 L6.18547546,85.1828631 L6.06929448,85.2681285 C4.83622699,85.2778073 4.0477454,84.5474441 3.70384969,83.0776536 C3.65582822,82.8972905 3.62174847,82.7123184 3.60315951,82.5227374 C3.22983129,82.5511592 2.78989264,82.5321089 2.28334356,82.4658939 C1.05027607,82.1908939 0.44303681,81.7261592 0.461625767,81.0716899 C0.470920245,80.7304749 0.676947853,80.3321089 1.07815951,79.8768994 C0.285030675,79.4310615 0.161104294,78.5966899 0.706380368,77.3731704 C-0.202929448,76.7949022 -0.102239264,75.8036732 1.00690184,74.4002514 C0.873680982,74.2103631 0.786932515,74.0018855 0.748205521,73.7743575 C0.365582822,72.2189944 1.47472393,71.4697346 4.07562883,71.5268855 C4.76496933,71.5361034 5.55345092,71.6073883 6.4426227,71.7401257 C7.00648773,71.8160196 7.61372699,71.9203352 8.26434049,72.0530726 C8.25504601,69.5210754 8.72906442,67.8613966 9.68484663,67.0743436 C9.79018405,66.9982961 9.90016871,66.9224022 10.0148006,66.846662 C11.2865951,66.1259777 11.9077761,66.4956145 11.8783436,67.9561872" id="Fill-116" fill="#EFA595"></path>
                    <path d="M2.29728528,72.4585056 C2.32361963,72.4287011 2.35769939,72.4121089 2.39797546,72.4087291 C3.01605828,72.3418994 3.57527607,72.3087151 4.07562883,72.309176 C5.23743865,72.3087151 6.05535276,72.4936872 6.52937117,72.8639385 C6.7106135,73.0009777 6.8484816,73.164595 6.94452454,73.3546369 L6.94452454,73.3617039 C7.2001227,73.914162 7.30081288,74.3596927 7.24659509,74.6989106 C7.19702454,75.0413547 7.00803681,75.2856285 6.6796319,75.4315782 C6.71526074,75.8557542 6.68273006,76.2375279 6.57894172,76.5765922 L6.57894172,76.5695251 C6.51697853,76.7869134 6.42403374,76.9835615 6.30010736,77.1597765 C6.16378834,77.3472067 6.00113497,77.503757 5.81214724,77.6292737 C5.9608589,78.8428073 5.70990798,79.6751816 5.05929448,80.1259358 C5.14759202,80.4865084 5.18941718,80.8017598 5.1801227,81.0716899 C5.16308282,82.0186732 4.64104294,82.5497765 3.61710123,82.665 C3.57992331,82.6700698 3.54584356,82.6605447 3.51641104,82.6365782 C3.48388037,82.6106145 3.46529141,82.5772765 3.45909509,82.5368715 C3.45444785,82.4996927 3.46374233,82.4665084 3.48852761,82.4374721 C3.51486196,82.4052095 3.54739264,82.3863128 3.58921779,82.3804749 C4.4381135,82.2872207 4.87495399,81.8509078 4.89354294,81.0716899 L4.89354294,81.0646229 C4.90128834,80.8357123 4.87030675,80.5726955 4.80059816,80.2752654 C4.08957055,80.6132542 2.99592025,80.5871369 1.51654908,80.197067 C1.32136503,80.1460615 1.15096626,80.0796927 1.00690184,79.9978073 C0.133220859,79.5233939 -0.0108435583,78.629567 0.576257669,77.3164804 C0.587101227,77.2900559 0.604141104,77.2688547 0.627377301,77.2524162 C0.650613497,77.2378212 0.676947853,77.2307542 0.706380368,77.2309078 C0.731165644,77.2306006 0.75595092,77.2378212 0.777638037,77.2524162 C1.14941718,77.4694972 1.70243865,77.623743 2.43360429,77.7148464 C3.84636503,77.9243994 4.88889571,77.836676 5.56119632,77.4515223 C5.57358896,77.4383101 5.58753067,77.4287849 5.60457055,77.4231006 C5.78891104,77.3100279 5.94381902,77.1653073 6.06929448,76.9890922 C6.1746319,76.8429888 6.25363497,76.6793715 6.30630368,76.4985475 L6.30630368,76.4913268 C6.39305215,76.1977374 6.42403374,75.8681983 6.40079755,75.5027095 C6.21026074,75.5434218 5.99029141,75.5646229 5.74088957,75.5666201 C5.12590491,75.6048743 4.5682362,75.6143994 4.06943252,75.5951955 C2.43205521,75.5265223 1.37403374,75.1567318 0.892269939,74.4855168 C0.867484663,74.4532542 0.858190184,74.417919 0.862837423,74.3788966 C0.869033742,74.3403352 0.889171779,74.3096089 0.920153374,74.2864106 C0.952684049,74.2621369 0.989861963,74.2527654 1.02858896,74.2581425 C1.06731595,74.2642877 1.09829755,74.2831844 1.12153374,74.3148324 C1.57696319,74.9144553 2.56527607,75.2462989 4.08337423,75.3105168 C4.5759816,75.3294134 5.12590491,75.3197346 5.73314417,75.282095 L5.74088957,75.282095 C5.98254601,75.2831704 6.19476994,75.2641201 6.37911043,75.2252514 C6.40544479,75.2092737 6.44417178,75.1997486 6.49374233,75.1968296 C6.76328221,75.0988128 6.91819018,74.9209078 6.96001534,74.6632682 C7.00029141,74.3624581 6.91044479,73.9665503 6.6873773,73.4756983 L6.6873773,73.4827654 C6.61147239,73.3312849 6.50148773,73.200852 6.35742331,73.0916201 C5.91283742,72.7599302 5.15378834,72.5940084 4.07562883,72.5937011 C3.58302147,72.5940084 3.03309816,72.6271927 2.42740798,72.6932542 C2.3871319,72.6981704 2.35150307,72.6886453 2.31897239,72.6648324 C2.28953988,72.6387151 2.2725,72.6055307 2.26940184,72.5651257 C2.26320552,72.5254888 2.27404908,72.4898464 2.29728528,72.4585056 Z M8.13576687,73.134176 C8.11717791,72.762081 8.1109816,72.3992039 8.12182515,72.045852 C8.12182515,72.0091341 8.13576687,71.9784078 8.16365031,71.9536732 C8.19308282,71.9250978 8.2256135,71.9111173 8.26434049,71.9109637 C8.30461656,71.9112709 8.33714724,71.9255587 8.36503067,71.9536732 C8.39291411,71.9837849 8.40840491,72.0191201 8.40840491,72.0602933 C8.39911043,72.4157961 8.40375767,72.7811313 8.42234663,73.1555307 C8.42234663,73.1830307 8.41615031,73.209148 8.40065951,73.2338827 C7.68033742,74.5070251 7.34263804,75.7850838 7.38911043,77.0674441 C7.42783742,78.0345531 7.68033742,79.0021229 8.14970859,79.9693855 C8.16674847,80.0067179 8.16984663,80.0446648 8.15745399,80.0830726 C8.14506135,80.119176 8.12027607,80.1451397 8.08464724,80.1614246 C8.04746933,80.1789385 8.00874233,80.1810894 7.97001534,80.1686453 C7.9343865,80.1558939 7.90805215,80.1322346 7.89101227,80.0973603 C7.40460123,79.0921508 7.14125767,78.0867877 7.10253067,77.0817318 C7.0545092,75.7605028 7.39840491,74.4448045 8.13576687,73.134176 Z M4.81453988,79.9408101 C5.40319018,79.5599581 5.64329755,78.8414246 5.5317638,77.785824 C4.82383436,78.1328771 3.77665644,78.2040084 2.39023006,77.9992179 C1.70088957,77.911648 1.16180982,77.7693855 0.777638037,77.5724302 C0.342346626,78.6289525 0.466273006,79.3567039 1.15096626,79.7559916 C1.27334356,79.8258939 1.42050613,79.8827374 1.58780675,79.926676 C3.06562883,80.3150559 4.13449387,80.3244274 4.79285276,79.9552514 L4.81453988,79.9408101 Z" id="Fill-117" fill="#C26F5D"></path>
                    <polyline id="Fill-118" fill="#5AA0C7" points="15.693727 83.2199162 8.49360429 89.5215642 5.68357362 85.5812291 12.3663037 79.9764525 15.693727 83.2199162"></polyline>
                    <path d="M15.693727,83.2199162 L26.1360736,93.3623464 L43.2193252,69.4499441 C46.7481288,69.440419 46.9386656,76.7474302 43.7924847,91.370824 L23.4112423,110.431704 L8.49360429,89.5215642 L15.693727,83.2199162" id="Fill-119" fill="#4A8DB2"></path>
                    <polyline id="Fill-120" fill="#5AA0C7" points="15.693727 83.2199162 8.49360429 89.5215642 5.68357362 85.5812291 12.3663037 79.9764525 15.693727 83.2199162"></polyline>
                    <path d="M7.83369632,86.3350978 C7.83369632,86.5626257 7.91579755,86.7572765 8.07845092,86.9184358 C8.24110429,87.0794413 8.43628834,87.1600978 8.66555215,87.1600978 C8.89636503,87.1600978 9.09154908,87.0794413 9.25420245,86.9184358 C9.41685583,86.7572765 9.49740798,86.5626257 9.49740798,86.3350978 C9.49740798,86.1075698 9.41685583,85.9132263 9.25420245,85.7519134 C9.09154908,85.5906006 8.89636503,85.5100978 8.66555215,85.5100978 C8.43628834,85.5100978 8.24110429,85.5906006 8.07845092,85.7519134 C7.91579755,85.9132263 7.83369632,86.1075698 7.83369632,86.3350978" id="Fill-121" fill="#FFFFFE"></path>
                    <polyline id="Fill-122" fill="#559AC0" points="43.2193252 69.3076816 56.1432975 62.9063268 67.903911 62.9063268 80.8123926 71.0146788 71.6340951 109.152263 41.7848773 109.152263 43.2193252 69.3076816"></polyline>
                    <path d="M65.7522393,210.464106 L74.6455061,210.464106 L76.6964877,216.864385 L76.6964877,219.852514 L62.2389264,219.852514 L62.2389264,216.793715 L65.0350153,213.734916 L65.7522393,210.464106 Z M44.7962883,210.464106 L46.3174847,218.714106 L22.7079601,218.714106 L22.7079601,215.300419 L32.0318712,213.734916 L37.0369479,210.464106 L44.7962883,210.464106 Z" id="Fill-123" fill="#13110F"></path>
                    <path d="M53.7034969,130.219413 L45.3709969,210.464106 C42.4060583,211.600978 38.8633129,211.412011 34.7427607,209.894134 L41.9289417,112.296788 C50.5247853,108.3225 60.3784816,108.3225 71.4900307,112.296788 L74.6455061,210.464106 C71.6139571,211.648603 68.291181,211.696229 64.6771779,210.605447 L55.4260736,130.219413 L53.7034969,130.219413" id="Fill-124" fill="#221916"></path>
                    <polyline id="Fill-125" fill="#11100E" points="41.7848773 108.867737 50.1034356 108.867737 50.1034356 109.152263 71.6340951 108.867737 71.6340951 112.438128 41.7848773 112.438128 41.7848773 108.867737"></polyline>
                    <polyline id="Fill-126" fill="#EBA52D" points="51.2513037 108.867737 51.2513037 112.438128 54.851365 112.438128 54.851365 108.867737 56.1432975 108.867737 56.1432975 113.292318 50.1034356 113.292318 50.1034356 108.867737 51.2513037 108.867737"></polyline>
                    <path d="M72.8377301,112.935894 L76.6252301,116.690642 L80.0967178,113.576536 L83.9694172,117.844413 L79.2354294,122.537849 C76.7491564,124.605726 74.4549693,123.846788 72.351319,120.26257 L67.8326534,119.835475 C67.2207669,119.721788 66.8567331,119.451397 66.7421012,119.024302 C65.3463804,118.710894 64.8677147,118.217737 65.3076534,117.544832 L66.2975153,117.231425 C65.4083436,116.615363 65.1744325,116.07919 65.5942331,115.624441 L67.961227,115.026816 C66.6615491,114.922346 66.038819,114.481425 66.096135,113.70405 L69.0378374,112.935894 L72.8377301,112.935894" id="Fill-127" fill="#EFA595"></path>
                    <path d="M70.292592,114.280168 C70.3142791,114.272486 70.3359663,114.27095 70.3576534,114.272486 L73.9422239,114.983799 C73.9825,114.993017 74.0134816,115.014525 74.0351687,115.048324 C74.0584049,115.080587 74.0646012,115.117458 74.0568558,115.155866 C74.0491104,115.194274 74.0274233,115.225 73.9933436,115.248045 C73.9592638,115.269553 73.923635,115.277235 73.884908,115.268017 L70.3204755,114.564385 L67.9968558,115.162011 C67.9596779,115.172765 67.9240491,115.168156 67.8899693,115.148184 C67.8558896,115.128212 67.8342025,115.100559 67.824908,115.062151 C67.8156135,115.025279 67.8202607,114.989944 67.8403988,114.956145 C67.8589877,114.922346 67.8884202,114.900838 67.9255982,114.89162 L70.292592,114.280168 Z M69.7829448,115.987011 C69.8015337,115.980866 69.8216718,115.97933 69.8402607,115.980866 L73.7842178,116.335754 C73.8229448,116.338827 73.8539264,116.355726 73.8787117,116.386453 C73.905046,116.417179 73.9158896,116.452514 73.9143405,116.492458 C73.9112423,116.52933 73.8942025,116.561592 73.8632209,116.584637 C73.8322393,116.610754 73.7966104,116.623045 73.7563344,116.619972 L69.8402607,116.265084 L66.3408896,117.36662 C66.3037117,117.380447 66.2680828,117.377374 66.2340031,117.360475 C66.1968252,117.340503 66.173589,117.312849 66.1611963,117.274441 C66.1488037,117.23757 66.1503528,117.202235 66.1689417,117.168436 C66.1875307,117.133101 66.2169632,117.10852 66.2541411,117.097765 L69.7829448,115.987011 Z M69.7333742,117.82905 L73.0530521,117.82905 C73.0933282,117.830587 73.1258589,117.844413 73.1537423,117.872067 C73.1816258,117.899721 73.1971166,117.93352 73.1971166,117.971927 C73.1971166,118.010335 73.1816258,118.044134 73.1537423,118.071788 C73.1258589,118.099441 73.0933282,118.113268 73.0530521,118.113268 L69.7767485,118.113268 L66.8722239,118.591061 C66.8598313,118.743156 66.8644785,118.881425 66.8861656,119.002793 C66.8908129,119.039665 66.8815184,119.071927 66.8567331,119.102654 C66.8365951,119.136453 66.8071626,119.157961 66.7715337,119.167179 C66.7312577,119.171788 66.6956288,119.16257 66.6630982,119.137989 C66.6290184,119.114944 66.6073313,119.084218 66.5995859,119.04581 C66.5686043,118.872207 66.5686043,118.672486 66.5995859,118.448184 C66.6042331,118.417458 66.6181748,118.391341 66.641411,118.369832 C66.6646472,118.346788 66.6894325,118.332961 66.7204141,118.326816 L69.7333742,117.82905 Z" id="Fill-128" fill="#C26F5D"></path>
                    <path d="M75.2186656,84.2440223 C75.1520552,76.1547207 77.0171472,71.7448883 80.8123926,71.0145251 L100.893113,105.169218 L83.2521933,120.546788 L77.945046,114.42919 L87.927316,103.362514 L75.2186656,84.2440223" id="Fill-129" fill="#559AC0"></path>
                    <polyline id="Fill-130" fill="#79BEDE" points="77.945046 114.42919 81.5296166 110.447067 87.0675767 117.217598 83.2521933 120.546788 77.945046 114.42919"></polyline>
                    <path d="M83.538773,117.403492 C83.538773,117.640084 83.6239724,117.839804 83.7959202,117.999581 C83.9585736,118.170112 84.159954,118.256145 84.3985123,118.256145 C84.6386196,118.256145 84.8430982,118.170112 85.015046,117.999581 C85.1776994,117.839804 85.2598006,117.640084 85.2598006,117.403492 C85.2598006,117.165363 85.1776994,116.961034 85.015046,116.790503 C84.8430982,116.630726 84.6386196,116.549302 84.3985123,116.549302 C84.159954,116.549302 83.9585736,116.630726 83.7959202,116.790503 C83.6239724,116.961034 83.538773,117.165363 83.538773,117.403492" id="Fill-131" fill="#FFFFFE"></path>
                    <polyline id="Fill-132" fill="#559AC0" points="60.5891564 62.3515642 67.0441718 57.642919 69.9115184 63.4896648 63.3139877 69.3218156 62.4108742 67.0033659 60.5891564 62.3515642 57.1904755 65.9221089 55.568589 67.6148184 53.6895552 61.782514 57.7202607 57.0740223 60.5891564 62.3515642"></polyline>
                    <polyline id="Fill-133" fill="#F1AD4D" points="60.5891564 62.3515642 62.4108742 67.0033659 60.3025767 69.8908659 59.5853528 99.3369134 54.6933589 104.600321 51.3953681 99.0523883 58.1509049 69.8908659 57.1904755 65.9221089 60.5891564 62.3515642"></polyline>
                    <polyline id="Fill-134" fill="#73BA9E" points="69.5683036 63.9527095 69.4638344 63.8860335 69.9078288 63.4896648 69.5683036 63.9527095"></polyline>
                    <polyline id="Fill-135" fill="#4C89AA" points="63.6005675 72.0246508 61.7556135 67.9001117 62.4093252 67.0059777 63.3139877 69.3218156 69.4638344 63.8860335 69.5691718 63.9527095 63.6005675 72.0246508"></polyline>
                    <polyline id="Fill-136" fill="#73BA9E" points="53.9745859 63.9800559 53.6895552 61.782514 54.3401687 63.7993855 53.9745859 63.9800559"></polyline>
                    <polyline id="Fill-137" fill="#4C89AA" points="54.851365 70.7444413 53.9745859 63.9800559 54.3401687 63.7993855 55.568589 67.6148184 57.1904755 65.9221089 60.0609202 62.9063268 57.1904755 65.9221089 57.5638037 67.4657961 54.851365 70.7444413"></polyline>
                    <polyline id="Fill-138" fill="#4C89AA" points="55.568589 67.6148184 60.5891564 62.3515642 57.1904755 65.9221089 55.568589 67.6148184"></polyline>
                    <polyline id="Fill-139" fill="#D69A43" points="61.7556135 67.9001117 60.1585123 64.3287989 57.5638037 67.4657961 57.1904755 65.9221089 60.5891564 62.3515642 62.4093252 67.0059777 61.7556135 67.9001117"></polyline>
                    <path d="M42.7453067,39.5202654 L45.0844172,27.9834777 L47.7225,15.1099441 C48.2677761,12.4450559 49.6542025,10.2923743 51.8833282,8.65174581 C54.1016104,7.02064246 56.5057822,6.3898324 59.0973926,6.75977654 L81.8890031,10.0172207 C84.489908,10.3871648 86.5223006,11.6484777 87.9846319,13.8011592 C89.4283742,15.9633659 89.8776074,18.3815223 89.3323313,21.0560894 L86.2636043,36.1062709 C88.568635,34.4561173 90.8008589,34.5081983 92.9618252,36.2626676 C94.998865,38.0550838 94.8981748,40.7056844 92.6613037,44.2146229 C89.4190798,49.2976676 86.5935583,49.9851676 84.1831902,46.2771229 L83.7246626,48.610014 C83.1793865,51.2844274 81.7976074,53.4323464 79.5793252,55.0542318 C77.342454,56.6851816 74.9274387,57.315838 72.3358282,56.9460475 L49.5442178,53.6884497 C46.9526074,53.3186592 44.9310583,52.0573464 43.4780215,49.9045112 C42.0234356,47.7518296 41.5695552,45.3431983 42.1148313,42.6783101 L42.7453067,39.5202654" id="Fill-140" fill="#EFA595"></path>
                    <path d="M45.0844172,27.9834777 L42.7453067,39.5202654 C41.0444172,38.989162 40.1924233,37.4528492 40.1924233,34.9113268 C40.1831288,30.5678631 40.8337423,28.0263408 42.1442638,27.2866061 C43.1759509,26.708338 44.1565184,26.9404749 45.0844172,27.9834777" id="Fill-141" fill="#E18774"></path>
                    <path d="M67.903911,50.2601676 C66.4415798,51.8534777 64.1892178,52.4982682 61.1483742,52.1948464 C59.5992945,52.0146369 58.3321472,51.5973743 57.3469325,50.9430587 C55.8938957,49.9662709 55.0759816,48.4536173 54.8947393,46.4052514 L69.7550613,45.8789106 C69.4870706,47.747067 68.8705368,49.207486 67.903911,50.2601676" id="Fill-142" fill="#401A1B"></path>
                    <path d="M57.3469325,50.9430587 C60.7905368,48.6860615 64.3084969,48.4582263 67.903911,50.2601676 C66.4415798,51.8534777 64.1892178,52.4982682 61.1483742,52.1948464 C59.5992945,52.0146369 58.3321472,51.5973743 57.3469325,50.9430587" id="Fill-143" fill="#CC5A59"></path>
                    <path d="M90.997592,39.0650559 C91.0347699,39.0811872 91.0611043,39.1073045 91.0765951,39.1432542 C91.0889877,39.1793575 91.0858896,39.2148464 91.0688497,39.2498743 C91.0518098,39.2872067 91.0254755,39.3131704 90.9898466,39.3282263 C90.9526687,39.3409777 90.9170399,39.3385196 90.8829601,39.3210056 C89.9178834,38.8877654 88.996181,39.3050279 88.1132055,40.5727933 C88.8970399,41.0624162 89.3292331,41.6290084 89.4113344,42.2727235 C89.5135736,42.9424022 89.2285429,43.6938128 88.5577914,44.5274162 C88.5314571,44.5595251 88.4989264,44.5785754 88.4586503,44.5842598 C88.4214724,44.5893296 88.3873926,44.5799581 88.3579601,44.5559916 C88.3254294,44.5298743 88.3068405,44.4966899 88.3006442,44.4564385 C88.2959969,44.4191061 88.3052914,44.3859218 88.3285276,44.3567318 C88.9404141,43.5970251 89.2084049,42.9142877 89.1325,42.3083659 C89.0473006,41.7425419 88.6553834,41.2423184 87.9567485,40.8076955 C87.5307515,41.4610894 87.1171472,42.3146648 86.7159356,43.3682682 C86.7004448,43.4042179 86.6741104,43.4304888 86.6369325,43.4463128 C86.6013037,43.4638268 86.5656748,43.4661313 86.5284969,43.4533799 C86.4928681,43.4384777 86.4665337,43.4123603 86.4494939,43.3751816 C86.432454,43.34 86.4309049,43.3046648 86.4432975,43.2685615 C86.8770399,42.1296927 87.326273,41.2192737 87.7909969,40.5373045 L87.7987423,40.5300838 C88.8040951,39.0148184 89.869862,38.5262709 90.997592,39.0650559" id="Fill-144" fill="#B65E4E"></path>
                    <path d="M60.4745245,30.0747067 C60.5070552,30.0508939 60.542684,30.0412151 60.581411,30.0462849 C60.620138,30.0522765 60.6511196,30.0711732 60.6759049,30.1031285 C60.6991411,30.1349302 60.7084356,30.1705726 60.7037883,30.2099022 C60.697592,30.2480028 60.6790031,30.2790363 60.6464724,30.3023883 C56.4918405,33.4418436 54.8002454,36.483743 55.5763344,39.4277793 C55.8551687,40.3908939 56.6994172,40.9576397 58.1075307,41.1277095 C58.1478067,41.1333939 58.1818865,41.1525978 58.2082209,41.1847067 C58.2330061,41.213743 58.2423006,41.2469274 58.2361043,41.2841061 C58.2314571,41.3246648 58.211319,41.3578492 58.1787883,41.3836592 C58.1509049,41.4077793 58.1168252,41.4173045 58.0796472,41.4122346 C56.5243712,41.2218855 55.5980215,40.584162 55.3036963,39.4989106 C54.4718405,36.4494832 56.1959663,33.3080307 60.4745245,30.0747067" id="Fill-145" fill="#C26F5D"></path>
                    <path d="M42.9606288,13.2322626 L46.8627607,14.3559218 C42.3874693,11.7386592 40.4650613,8.35293296 41.0970859,4.19920391 L44.2525613,6.71706704 C56.2052607,-1.12565642 69.0657209,-2.01702514 82.8354908,4.04265363 C87.9040798,6.30932961 90.4941411,8.97421788 90.6103221,12.0373184 C97.7329908,14.8349441 98.5648466,21.7435894 93.1058896,32.7634078 C92.608635,33.7116201 92.0912423,34.5794832 91.5568098,35.3665363 C89.8357822,34.560433 88.0713804,34.8070112 86.2636043,36.1062709 L84.801273,39.2357402 C84.2358589,39.0271089 83.5620092,38.7948184 82.7781748,38.5387151 C82.9594172,34.9159358 82.5628528,32.2275419 81.5869325,30.4730726 C80.6218558,28.7092318 80.4777914,25.2998464 81.1578374,20.2452235 C76.3572393,24.5412151 70.6287423,26.1818436 63.9738957,25.1669553 C61.2103374,24.7403212 58.948681,23.8535615 57.1904755,22.5069832 L62.970092,22.1086173 C56.5259202,21.9949302 51.276089,20.4538547 47.2205982,17.4853911 C45.6142025,16.2907542 44.1952454,14.8728911 42.9606288,13.2322626" id="Fill-146" fill="#142022"></path>
                    <path d="M44.2029908,6.77682961 L46.6133589,8.71150838 C46.6458896,8.73824022 46.6954601,8.73317039 46.7217945,8.70013966 C46.7481288,8.66710894 46.7434816,8.61886872 46.7109509,8.59213687 L44.3005828,6.6574581 C44.2680521,6.63072626 44.2184816,6.63579609 44.1921472,6.66882682 C44.1642638,6.70170391 44.1704601,6.75009777 44.2029908,6.77682961" id="Fill-147" fill="#0F1516"></path>
                    <path d="M73.225,20.5723045 C75.9978528,20.8947765 78.3230215,21.7956704 80.1958589,23.2751397 C80.5118712,23.5121927 80.6884663,23.8299022 80.7271933,24.2282682 C80.7752147,24.6075838 80.6745245,24.9535615 80.4266718,25.266662 C80.1865644,25.5700838 79.8705521,25.7502933 79.478635,25.8071369 C79.0867178,25.8452374 78.7335276,25.7455307 78.4175153,25.5086313 C76.9257515,24.3514804 75.0807975,23.6496927 72.8811043,23.4031145 C72.5077761,23.3556425 72.1933129,23.1803492 71.9346166,22.8769274 C71.6867638,22.5639804 71.5860736,22.212933 71.6340951,21.8242458 C71.6805675,21.4449302 71.8587117,21.1319832 72.1638804,20.8852514 C72.4798926,20.6293017 72.8330828,20.524986 73.225,20.5723045 Z M55.4678988,20.2737989 C53.2015951,19.941648 51.3086196,20.2261732 49.7889724,21.1272207 C49.4450767,21.3261732 49.0856902,21.383324 48.712362,21.2977514 C48.3204448,21.2029609 48.0199233,20.9897207 47.8092485,20.6577235 C47.6078681,20.3163547 47.5505521,19.9606983 47.6373006,19.5909078 C47.7333436,19.2019134 47.9471166,18.9032542 48.2832669,18.6946229 C50.3187577,17.4237849 52.8576994,17.0114385 55.8985429,17.4569693 C56.2904601,17.5139665 56.6064724,17.7035475 56.8450307,18.0260196 C57.085138,18.329595 57.1749847,18.6804888 57.1176687,19.0787011 C57.0603528,19.4581704 56.869816,19.7663547 56.5445092,20.0034078 C56.2284969,20.2406145 55.8706595,20.3304888 55.4678988,20.2737989 Z" id="Fill-148" fill="#0E1516"></path>
                    <path d="M68.0046012,29.2211313 C69.6295859,28.0072905 71.4420092,27.5427095 73.4403221,27.827081 C75.438635,28.1117598 77.0558742,29.0648883 78.2889417,30.6864665 C79.4832822,32.289148 79.9387117,34.0863268 79.6505828,36.0776955 C79.3640031,38.0596927 78.4175153,39.6530028 76.8111196,40.8573184 C75.1659969,42.0617877 73.3458282,42.5217598 71.3459663,42.237081 C69.3476534,41.9527095 67.7412577,41.0044972 66.5267791,39.3921369 C65.3123006,37.7800838 64.8491258,35.9827514 65.1357055,34.0009078 C65.4222853,32.0095391 66.3796166,30.4162291 68.0046012,29.2211313 Z M44.1224387,25.7787151 C45.6343405,24.6502933 47.3212883,24.2188966 49.1863804,24.4843715 C51.0514724,24.7496927 52.5478834,25.6364525 53.6756135,27.1444972 C54.8033436,28.6427095 55.2339877,30.3165223 54.9659969,32.1659358 C54.6980061,34.0150419 53.8088344,35.4992737 52.2984816,36.618324 C50.7881288,37.7373743 49.0996319,38.164162 47.236089,37.8985335 C45.3709969,37.6330587 43.8745859,36.7510615 42.7453067,35.2528492 C41.6175767,33.7543296 41.1869325,32.0805168 41.4549233,30.231257 C41.7229141,28.3819972 42.6120859,26.897919 44.1224387,25.7787151 Z" id="Fill-149" fill="#FFFFFE"></path>
                    <path d="M68.0046012,29.2211313 C66.3796166,30.4162291 65.4222853,32.0095391 65.1357055,34.0009078 C64.8491258,35.9827514 65.3123006,37.7800838 66.5267791,39.3921369 C67.7412577,41.0044972 69.3476534,41.9527095 71.3459663,42.237081 C73.3458282,42.5217598 75.1659969,42.0617877 76.8111196,40.8573184 C78.4175153,39.6530028 79.3640031,38.0596927 79.6505828,36.0776955 C79.9387117,34.0863268 79.4832822,32.289148 78.2889417,30.6864665 C77.0558742,29.0648883 75.438635,28.1117598 73.4403221,27.827081 C71.4420092,27.5427095 69.6295859,28.0072905 68.0046012,29.2211313 Z M44.1224387,25.7787151 C42.6120859,26.897919 41.7229141,28.3819972 41.4549233,30.231257 C41.1869325,32.0805168 41.6175767,33.7543296 42.7453067,35.2528492 C43.8745859,36.7510615 45.3709969,37.6330587 47.236089,37.8985335 C49.0996319,38.164162 50.7881288,37.7373743 52.2984816,36.618324 C53.8088344,35.4992737 54.6980061,34.0150419 54.9659969,32.1659358 C55.2339877,30.3165223 54.8033436,28.6427095 53.6756135,27.1444972 C52.5478834,25.6364525 51.0514724,24.7496927 49.1863804,24.4843715 C47.3212883,24.2188966 45.6343405,24.6502933 44.1224387,25.7787151 Z M43.3200153,24.6691899 C45.1169479,23.3224581 47.140046,22.8105587 49.3862117,23.1328771 C51.6339264,23.4553492 53.4417025,24.5127933 54.8095399,26.3050559 C55.9651534,27.860419 56.501135,29.5674162 56.4143865,31.4262011 C58.7194172,30.8665223 61.2196319,31.2506006 63.9165798,32.5784358 C64.4432669,30.7480726 65.513681,29.2355726 67.1293712,28.0406285 C69.0796626,26.589581 71.2561196,26.0349721 73.6556442,26.3761872 C76.0660123,26.727081 78.002362,27.8651816 79.4646933,29.7901816 C80.7086043,31.4593855 81.2910583,33.2848324 81.2151534,35.2669832 L87.1527761,33.9439106 C88.6925613,33.5931704 89.657638,33.9248603 90.0495552,34.9397486 C88.9032362,34.797486 87.7212883,35.124567 86.5068098,35.9212989 L80.9425153,37.2299302 C80.4545552,39.1930307 79.3686503,40.7957123 77.6863497,42.0381285 C75.7267638,43.4985475 73.5410123,44.0533101 71.1306442,43.7024162 C68.7311196,43.3610475 66.8040644,42.2229469 65.3510276,40.2884218 C63.9460123,38.4296369 63.3713037,36.3622207 63.63,34.0863268 C61.2196319,32.872486 58.7581442,32.4788827 56.2424387,32.9056704 C55.8319325,34.8779888 54.7986963,36.480824 53.1442791,37.7137151 C51.3287577,39.0604469 49.296365,39.5723464 47.0486503,39.2498743 C44.8024847,38.9275559 43.0040031,37.8701117 41.6563037,36.0776955 C40.2884663,34.2757542 39.7679755,32.2607263 40.0932822,30.0321508 C40.4170399,27.8224721 41.4936503,26.0349721 43.3200153,24.6691899 Z" id="Fill-150" fill="#161615"></path>
                    <path d="M49.4295859,30.0035754 C49.7270092,29.7949441 50.0616104,29.7190503 50.4333896,29.7760475 C50.7974233,29.8235196 51.0886503,29.9894413 51.3086196,30.2739665 C51.5378834,30.5678631 51.6246319,30.8997067 51.567316,31.2698045 C51.51,31.6300698 51.3380521,31.9193575 51.0514724,32.1373603 C50.7540491,32.3553631 50.4240951,32.4409358 50.0616104,32.3934637 C49.6882822,32.3366201 49.392408,32.1610196 49.1724387,31.8671229 C48.9524693,31.5730726 48.8703681,31.2459916 48.927684,30.8857263 C48.985,30.5157821 49.1523006,30.2215782 49.4295859,30.0035754 Z M72.565092,33.4177235 C72.8625153,33.2089385 73.1924693,33.1331983 73.554954,33.1901955 C73.9282822,33.237514 74.2241564,33.4034358 74.4441258,33.6879609 C74.6640951,33.9818575 74.7461963,34.3138547 74.6888804,34.6837989 C74.6315644,35.0440642 74.4642638,35.333352 74.1869785,35.5513547 C73.8895552,35.7695112 73.554954,35.8549302 73.1831748,35.8074581 C72.8191411,35.7506145 72.5279141,35.5751676 72.3079448,35.2811173 C72.078681,34.987067 71.9919325,34.659986 72.0492485,34.2997207 C72.1065644,33.9299302 72.2785123,33.6357263 72.565092,33.4177235 Z" id="Fill-151" fill="#875233"></path>
                </g>
                <g id="Group-42" transform="translate(79.500000, 61.500000) scale(-1, 1) translate(-79.500000, -61.500000) ">
                    <mask id="mask-2" fill="white">
                        <use xlink:href="#path-1"></use>
                    </mask>
                    <g id="Clip-41"></g>
                    <path d="M158.712,26.736 L158.712,65.452 C158.712,79.8 147.081,91.432 132.733,91.432 L116.737,91.432 L102.571,122.757 L98.187,91.432 L26.656,91.432 C12.308,91.432 0.677,79.8 0.677,65.452 L0.677,26.736 C0.677,12.388 12.308,0.757 26.656,0.757 L132.733,0.757 C147.081,0.757 158.712,12.388 158.712,26.736" id="Fill-40" fill="#C7D8E6" mask="url(#mask-2)"></path>
                </g>
                <g id="Group-2" transform="translate(55.000000, 20.000000)">
                    <circle id="Oval" fill="#7ED321" cx="25" cy="25" r="25"></circle>
                    <path d="M37.3168457,17.428894 C36.744873,16.857019 35.817334,16.857019 35.2453613,17.4289917 L22.3099121,30.3644409 L15.5006348,23.5551636 C14.9286621,22.9831909 14.001123,22.9831909 13.4290527,23.5551636 C12.8569824,24.1271362 12.8569824,25.0546753 13.4290527,25.6267456 L21.2740723,33.4717651 C21.5601074,33.7578003 21.9350098,33.900769 22.3098145,33.900769 C22.6846191,33.900769 23.0596191,33.7577026 23.3455566,33.4717651 L37.3168457,19.5004761 C37.888916,18.9285034 37.888916,18.0009644 37.3168457,17.428894 Z" id="Shape" fill="#FFFFFF" fill-rule="nonzero"></path>
                </g>
            </g>
        </g>
    </g>
</svg>