
<svg width="175px" height="252px" viewBox="0 0 175 252" version="1.1" xmlns="http://www.w3.org/2000/svg" xmlns:xlink="http://www.w3.org/1999/xlink">
    <!-- Generator: Sketch 44.1 (41455) - http://www.bohemiancoding.com/sketch -->
    <desc>Created with Sketch.</desc>
    <defs></defs>
    <g id="Page-1" stroke="none" stroke-width="1" fill="none" fill-rule="evenodd">
        <g id="Group-73">
            <path d="M38.0250883,184.446088 C38.0250883,184.446088 53.5320671,206.744382 60.9166961,215.225294 C68.3013251,223.706206 118.011219,222.816794 123.432509,212.915912 C128.853799,203.015029 136.820936,177.018882 136.820936,177.018882 L102.29523,158.928618 L62.4583039,162.163853 L38.0250883,184.446088" id="Fill-68" fill="#4C181A"></path>
            <path d="M19.3470848,42.4582941 C-8.49708481,62.9512059 8.72402827,89.8534412 19.3470848,99.0489706 C29.9701413,108.245118 73.1716431,114.611824 78.8371908,83.4867353 C84.5027385,52.3622647 46.259364,22.6522059 19.3470848,42.4582941" id="Fill-69" fill="#FFFFFF"></path>
            <path d="M61.1318905,78.2657647 C57.2948763,78.2657647 54.1844523,75.159 54.1844523,71.3271176 C54.1844523,67.494 57.2948763,64.3872353 61.1318905,64.3872353 C64.9689046,64.3872353 68.0793286,67.494 68.0793286,71.3271176 C68.0793286,75.159 64.9689046,78.2657647 61.1318905,78.2657647 Z M57.5904594,57.3133235 C49.8428445,57.3133235 43.5613958,63.5873824 43.5613958,71.3271176 C43.5613958,79.0656176 49.8428445,85.3396765 57.5904594,85.3396765 C65.339311,85.3396765 71.6201413,79.0656176 71.6201413,71.3271176 C71.6201413,63.5873824 65.339311,57.3133235 57.5904594,57.3133235 L57.5904594,57.3133235 Z" id="Fill-70" fill="#483E36"></path>
            <path d="M71.6201413,92.1195882 C71.6201413,92.1195882 53.3416078,105.415676 18.9927562,93.3900882 C18.9927562,93.3900882 47.3217314,118.148471 71.6201413,92.1195882" id="Fill-71" fill="#F2F2F1"></path>
            <path d="M148.416696,42.4582941 C176.260866,62.9512059 159.039753,89.8534412 148.416696,99.0489706 C137.793021,108.245118 94.5921378,114.611824 88.9265901,83.4867353 C83.260424,52.3622647 121.504417,22.6522059 148.416696,42.4582941" id="Fill-72" fill="#FFFFFF"></path>
            <path d="M99.6844523,71.3271176 C99.6844523,67.494 102.794876,64.3872353 106.63189,64.3872353 C110.468905,64.3872353 113.579329,67.494 113.579329,71.3271176 C113.579329,75.159 110.468905,78.2657647 106.63189,78.2657647 C102.794876,78.2657647 99.6844523,75.159 99.6844523,71.3271176 Z M96.1436396,71.3271176 C96.1436396,79.0656176 102.42447,85.3396765 110.173322,85.3396765 C117.920936,85.3396765 124.202385,79.0656176 124.202385,71.3271176 C124.202385,63.5873824 117.920936,57.3133235 110.173322,57.3133235 C102.42447,57.3133235 96.1436396,63.5873824 96.1436396,71.3271176 L96.1436396,71.3271176 Z" id="Fill-73" fill="#483E36"></path>
            <path d="M96.1436396,92.1195882 C96.1436396,92.1195882 114.422173,105.415676 148.770406,93.3900882 C148.770406,93.3900882 120.442049,118.148471 96.1436396,92.1195882" id="Fill-74" fill="#F2F2F1"></path>
            <path d="M45.3064488,0.192705882 C45.3064488,0.192705882 11.6563604,-2.99064706 4.25874558,20.3527059 C4.25874558,20.3527059 15.6714664,6.02823529 45.3064488,0.192705882" id="Fill-75" fill="#2A2A2A"></path>
            <path d="M115.310159,10.1998235 C115.310159,10.1998235 140.275177,-0.868411765 154.085336,27.7805294 C154.085336,27.7805294 137.619258,9.59576471 115.310159,10.1998235" id="Fill-76" fill="#2A2A2A"></path>
            <path d="M174.913428,168.529941 C173.867756,138.7575 93.8259717,119.305941 87.1772085,148.075941 C76.2839223,123.234176 1.3245583,142.376912 0.312279152,171.182735 C-0.750088339,201.423353 18.9927562,209.912294 18.9927562,209.912294 C18.0206714,192.935029 47.0545936,182.323853 67.7701413,180.202235 C80.5531802,178.892824 86.1581272,173.904088 88.1115724,166.937029 C90.7019435,172.497706 96.3674912,176.413588 107.455565,177.549441 C128.171113,179.671676 157.205035,190.282235 156.232951,207.2595 C156.232951,207.2595 175.975795,198.770559 174.913428,168.529941" id="Fill-77" fill="#2A2A2A"></path>
            <path d="M52.3664311,203.545588 C50.8909894,205.161971 61.3959364,215.217882 68.3013251,223.706206 C75.2060954,232.194529 79.4555654,250.232912 100.171113,251.824588 C120.886042,253.416265 130.977915,240.152912 125.666696,219.461735 C120.354859,198.771176 102.632244,188.16 89.7162544,199.832294 C85.8291519,199.832294 68.8325088,185.507206 52.3664311,203.545588" id="Fill-78" fill="#DF585C"></path>
        </g>
    </g>
</svg>