
<svg width="159px" height="342px" viewBox="0 0 159 342" version="1.1" xmlns="http://www.w3.org/2000/svg" xmlns:xlink="http://www.w3.org/1999/xlink">
    <!-- Generator: Sketch 50.2 (55047) - http://www.bohemiancoding.com/sketch -->
    <desc>Created with Sketch.</desc>
    <defs>
        <path d="M158.712,26.736 L158.712,65.452 C158.712,79.8 147.081,91.432 132.733,91.432 L116.737,91.432 L102.571,122.757 L98.187,91.432 L26.656,91.432 C12.308,91.432 0.677,79.8 0.677,65.452 L0.677,26.736 C0.677,12.388 12.308,0.757 26.656,0.757 L132.733,0.757 C147.081,0.757 158.712,12.388 158.712,26.736" id="path-1"></path>
    </defs>
    <g id="Page-1" stroke="none" stroke-width="1" fill="none" fill-rule="evenodd">
        <g id="Group-5">
            <g id="Group" transform="translate(46.000000, 122.000000)">
                <path d="M24.5858124,50.5907173 L32.2072586,50.5907173 L32.2072586,62.1080731 C30.6278535,64.9892686 28.0875789,64.4640225 24.5858124,60.5324895 L24.5858124,50.5907173" id="Fill-42" fill="#E18774"></path>
                <path d="M44.9104546,86.7216174 C42.0441846,78.702602 42.9078002,72.5381153 47.5028574,68.2278481 L54.9595164,94.4572011 L50.529402,101.906259 L44.9104546,86.7216174" id="Fill-43" fill="#4A8DB2"></path>
                <polyline id="Fill-44" fill="#559AC0" points="34.4291625 61.8846695 47.411405 68.3308861 48.8507643 108.455668 18.8685217 108.455668 9.64759725 70.0498875 22.614746 61.8846695 34.4291625 61.8846695"></polyline>
                <polyline id="Fill-45" fill="#559AC0" points="33.3198444 65.380225 29.9058398 61.7844163 28.0755973 66.4687764 27.1677895 68.803685 20.5400458 62.9303657 23.4218764 57.0429677 29.9058398 61.7844163 32.7876705 56.4697609 36.8349931 61.2113643 34.9474874 67.0846835 33.3198444 65.380225"></polyline>
                <polyline id="Fill-46" fill="#F1AD4D" points="28.1647597 66.4143179 29.9950023 61.7299578 33.4090069 65.3257665 32.4442471 69.3221238 39.2302426 98.6888748 35.9158261 104.275668 31.0033318 98.9754008 30.2828741 69.3221238 28.1647597 66.4143179"></polyline>
                <polyline id="Fill-47" fill="#4C89AA" points="27.660595 71.6287201 21.9405034 64.0506329 27.1562746 68.6632068 28.0659497 66.3309283 29.0042563 67.6196765 27.660595 71.6287201"></polyline>
                <polyline id="Fill-48" fill="#4C89AA" points="35.8750572 70.3077918 32.8687414 67.2370745 33.3246682 65.3514487 30.0320366 61.8846695 33.3246682 65.3514487 34.9523112 67.0559072 36.2064989 63.159339 35.8750572 70.3077918"></polyline>
                <polyline id="Fill-49" fill="#4C89AA" points="35.0736842 67.030225 33.4460412 65.3257665 30.1534096 61.8589873 30.0320366 61.7299578 35.0736842 67.030225"></polyline>
                <polyline id="Fill-50" fill="#D69A43" points="29.1030664 67.7056962 28.1647597 66.416948 29.993135 61.7299578 30.114508 61.8589873 33.4071396 65.3257665 32.9512128 67.2113924 30.2094279 64.4089451 29.1030664 67.7056962"></polyline>
                <polyline id="Fill-51" fill="#4A8DB2" points="32.930984 90.0421941 55.0037529 94.5258931 58.7849886 107.84827 30.6544622 97.8851477 32.930984 90.0421941"></polyline>
                <polyline id="Fill-52" fill="#5AA0C7" points="30.6619314 97.9167089 25.208238 95.9899297 28.2344714 89.1139241 32.9384531 90.0737553 30.6619314 97.9167089"></polyline>
                <path d="M29.0574737,95.0503657 C29.0574737,95.2794937 28.9765584,95.4753586 28.8131716,95.6376512 C28.6497849,95.7999437 28.4521648,95.8811674 28.2218673,95.8811674 C27.9917254,95.8811674 27.7948833,95.7999437 27.6314966,95.6376512 C27.4684211,95.4753586 27.3867277,95.2794937 27.3867277,95.0503657 C27.3867277,94.821083 27.4684211,94.6253727 27.6314966,94.4629255 C27.7948833,94.3007876 27.9917254,94.2194093 28.2218673,94.2194093 C28.4521648,94.2194093 28.6497849,94.3007876 28.8131716,94.4629255 C28.9765584,94.6253727 29.0574737,94.821083 29.0574737,95.0503657" id="Fill-53" fill="#FFFFFE"></path>
                <path d="M39.8352403,89.3661041 L46.9091076,87.1026723 C49.3816934,88.632616 51.3796796,90.9484951 52.9030664,94.0503094 L52.8812815,94.0862025 C49.6508924,94.7816315 45.9863616,94.8985935 41.8876888,94.4370886 L39.8352403,89.3661041" id="Fill-54" fill="#EFA595"></path>
                <path d="M19.482389,82.6904501 L17.6093547,93.4486357 L39.65427,88.7070323 L42.6792586,96.1703235 L6.06864989,109.492546 L9.81471854,70.0843882 C15.0701693,70.1722644 18.2926224,74.3743882 19.482389,82.6904501" id="Fill-55" fill="#5AA0C7"></path>
                <polyline id="Fill-56" fill="#67B0D5" points="34.7002288 89.8501969 39.5567048 88.8045007 42.5816934 96.2677918 37.6536384 98.0584248 34.7002288 89.8501969"></polyline>
                <path d="M40.4172082,95.3596343 C40.4172082,95.588917 40.3347368,95.784782 40.1713501,95.9469198 C40.0095195,96.1093671 39.8118993,96.1905907 39.5816018,96.1905907 C39.3513043,96.1905907 39.1536842,96.1093671 38.9902975,95.9469198 C38.8269108,95.784782 38.7459954,95.588917 38.7459954,95.3596343 C38.7459954,95.1305063 38.8269108,94.9347961 38.9902975,94.7721941 C39.1536842,94.6100563 39.3513043,94.5288326 39.5816018,94.5288326 C39.8118993,94.5288326 40.0095195,94.6100563 40.1713501,94.7721941 C40.3347368,94.9347961 40.4172082,95.1305063 40.4172082,95.3596343" id="Fill-57" fill="#FFFFFE"></path>
                <path d="M17.3560275,85.5555556 L28.1625812,89.1369761 L27.117373,91.5148945 L21.8223982,92.6538819 C21.1476888,95.2157525 20.1438719,96.2877496 18.8109474,95.8697187 L19.8916339,91.7154008 C19.6540229,91.6699156 19.418746,91.6174684 19.1856476,91.5579044 C19.0656751,92.1714909 18.9214279,92.7564557 18.7535286,93.3127989 C18.3523753,94.6191842 17.8142883,95.767609 17.1398902,96.7579184 C16.573016,97.5976934 15.9054645,97.7075387 15.1369245,97.0874543 L17.4422334,90.9633474 C17.2485034,90.8807314 17.0561739,90.7922363 16.8658673,90.698481 C15.4181053,95.8460478 13.9051442,97.6414768 12.3274508,96.0846132 L15.3820046,89.838903 C12.0977757,93.5023207 10.1863066,94.6532208 9.64759725,93.2911392 L17.3560275,85.5555556" id="Fill-58" fill="#EFA595"></path>
                <path d="M25.407103,213.701688 L28.2162654,216.781997 L28.2162654,219.862307 L13.6933638,219.862307 L13.6933638,216.853165 L15.7537483,210.407876 L24.6866453,210.407876 L25.407103,213.701688 Z M67.9254645,218.715893 L44.209492,218.715893 L45.7375469,210.407876 L53.5318719,210.407876 L58.5595149,213.701688 L67.9254645,215.2782 L67.9254645,218.715893 Z" id="Fill-59" fill="#13110F"></path>
                <path d="M36.7526773,129.657704 L35.0223341,129.657704 L25.7298307,210.60904 C22.099222,211.707493 18.7611533,211.661079 15.7162471,210.466705 L18.8859497,111.60904 C30.0475973,107.607113 39.9457208,107.607113 48.5803204,111.60904 L55.7989016,209.892725 C51.6597712,211.421276 48.1010526,211.613119 45.122746,210.466705 L36.7526773,129.657704" id="Fill-60" fill="#221916"></path>
                <polyline id="Fill-61" fill="#11100E" points="18.8283753 111.73865 18.8283753 108.14346 40.4553318 108.429986 40.4553318 108.14346 48.8113959 108.14346 48.8113959 111.73865 18.8283753 111.73865"></polyline>
                <polyline id="Fill-62" fill="#EBA52D" points="34.389016 108.14346 35.6867735 108.14346 35.6867735 111.73865 39.3030664 111.73865 39.3030664 108.14346 40.4561098 108.14346 40.4561098 112.598847 34.389016 112.598847 34.389016 108.14346"></polyline>
                <path d="M51.0117948,32.6773141 L50.7674928,44.5242058 L50.6959138,47.7617023 C50.6290031,50.5024196 49.6440145,52.7708022 47.7425042,54.5662312 C45.8503303,56.380535 43.5878131,57.1876658 40.9565088,56.9870047 L17.8884813,55.2109147 C15.2663578,55.0006615 13.0427422,53.84512 11.2176347,51.7441355 C9.3925271,49.6717726 8.51381772,47.2604365 8.58103969,44.5098177 L8.62429827,42.1318992 C5.44479255,45.2357248 2.83200536,43.9369203 0.786247926,38.2354857 C-0.62588022,34.3008584 -0.135720037,31.6840652 2.25579484,30.3852607 C4.76292527,29.1150779 6.96724564,29.5402255 8.86906715,31.6602396 L9.18619301,16.2176939 C9.24376738,13.4766672 10.2186415,11.1991566 12.110971,9.38454339 C14.0319321,7.58926913 16.3036301,6.79173045 18.9259093,6.99223678 L41.9928475,8.76863622 C44.6148154,8.96929726 46.8337628,10.1104506 48.6496896,12.1924056 C50.4656163,14.2932354 51.3432365,16.7143184 51.2856621,19.4551904 L51.0117948,32.6773141" id="Fill-64" fill="#EFA595"></path>
                <path d="M51.1275973,32.6485987 C52.2713043,31.8272345 53.2843021,31.8176423 54.1681465,32.6199771 C55.2916247,33.6322556 55.3694279,36.263437 54.3984439,40.5129025 C53.8320366,43.0152091 52.6603204,44.3426353 50.8832952,44.4954904 L51.1275973,32.6485987" id="Fill-65" fill="#E18774"></path>
                <path d="M35.2313151,31.6431885 C35.204862,31.611782 35.1924135,31.5758889 35.1955256,31.5356639 C35.1986377,31.4979142 35.2157544,31.4668172 35.2453196,31.4426822 C35.277997,31.4162265 35.3137865,31.4043137 35.3542441,31.4067891 C35.3915897,31.4101927 35.422711,31.4269016 35.447608,31.4569156 C38.9285233,35.5657483 39.9259604,39.0275767 38.4368071,41.8425556 C37.9170817,42.8467891 36.8698505,43.2742574 35.2966698,43.1248059 C35.2577682,43.121557 35.2266469,43.1046934 35.2033059,43.0746794 C35.1768528,43.0432729 35.1644043,43.0073798 35.1675164,42.9671547 C35.1706286,42.9292504 35.1861892,42.8981533 35.2173105,42.8740183 C35.2484318,42.8477173 35.2842212,42.8356498 35.3246789,42.8382799 C36.7484775,42.9753545 37.6992327,42.6006428 38.1785004,41.7138355 C39.5914066,38.989827 38.6095302,35.6328931 35.2313151,31.6431885" id="Fill-66" fill="#C26F5D"></path>
                <path d="M6.99667687,38.9017549 C6.96446635,38.8782387 6.94517115,38.8472964 6.9391025,38.8086185 C6.77727184,37.6844834 6.56113454,36.7532739 6.2906906,36.0152992 C5.50985765,36.289603 5.01502928,36.6955664 4.8066723,37.2328801 C4.59722607,37.8118111 4.70770662,38.5425144 5.13811394,39.4246803 C5.15569747,39.4621206 5.15818717,39.5003344 5.14527184,39.5393217 C5.13266772,39.5756789 5.10854873,39.6018252 5.07322607,39.6182246 C5.03541372,39.6357071 4.99713454,39.637873 4.95792173,39.6253414 C4.92166543,39.612655 4.89505674,39.5888294 4.87856246,39.5535552 C4.4059858,38.5832036 4.29317115,37.7785481 4.54011852,37.1398983 C4.76403614,36.5233723 5.31379358,36.0601656 6.18985765,35.7504328 C5.60135422,34.3148632 4.78986681,33.7035974 3.75477298,33.9166353 C3.7163382,33.9243709 3.68023751,33.9174089 3.64678214,33.8951304 C3.61270433,33.8726972 3.59107504,33.8416002 3.58189427,33.801994 C3.57426955,33.7636255 3.58142745,33.7278871 3.60352356,33.6946241 C3.62624209,33.6607422 3.65736337,33.639392 3.69735422,33.630264 C4.91621921,33.3531754 5.85514827,34.0718111 6.5139858,35.7861712 C6.8150842,36.5572542 7.05285079,37.5505031 7.22728557,38.7657633 C7.23226497,38.8050601 7.22277298,38.8409532 7.19849838,38.8732879 C7.17484621,38.9053133 7.14356932,38.9243428 7.10466772,38.9305313 C7.06498809,38.9356367 7.02904301,38.9260446 6.99667687,38.9017549" id="Fill-67" fill="#B65E4E"></path>
                <path d="M56.5808012,12.0341709 L60.2406639,10.2436927 C59.9325632,14.4648461 57.3012589,17.3776027 52.3451948,18.9819628 L56.4080781,18.7099797 C54.8333413,20.0468432 53.1232269,21.1307532 51.2792909,21.9615549 C46.6484442,23.9958587 41.1602063,24.3730458 34.8099088,23.0932708 L40.400847,24.7265619 C38.3732955,25.6622582 35.9629523,26.0395999 33.1682612,25.8581231 C26.4154099,25.3995577 21.161204,22.5441991 17.4056433,17.291583 C16.9540735,22.4010908 16.0559134,25.7148601 14.7111628,27.2333552 C13.3664122,28.7518503 12.3865587,31.3062947 11.7719134,34.8973074 C10.9459545,34.9927645 10.2303207,35.0787842 9.62532296,35.1552117 L8.90470969,31.7314424 C7.40621999,30.0696843 5.73018338,29.4488264 3.87628864,29.8690233 C3.52088361,28.9713861 3.20406896,28.0021175 2.92553349,26.9610627 C0.00542365122,14.9470823 2.35383555,8.34801061 9.9709248,7.16384746 C10.7584488,4.16507109 13.885204,2.10709641 19.3507234,0.989768699 C34.1905953,-1.9709486 46.6002063,1.7107251 56.5808012,12.0341709" id="Fill-68" fill="#142022"></path>
                <path d="M56.5225667,11.9208064 L53.7278756,13.2961932 C53.688974,13.3152227 53.6734133,13.3616362 53.6920861,13.39985 C53.7107589,13.4382185 53.7574408,13.4538444 53.7963424,13.4349696 L56.5910335,12.0594281 C56.6299351,12.0405533 56.6454957,11.9941398 56.626823,11.9557713 C56.6081502,11.9175575 56.5614683,11.9019316 56.5225667,11.9208064" id="Fill-69" fill="#0F1516"></path>
                <path d="M17.2627036,22.0106728 C17.4355823,21.638127 17.7139621,21.3898148 18.09831,21.265736 C18.4535594,21.1319104 18.818612,21.1462986 19.1931566,21.3087459 C20.8934679,22.120518 22.8576875,22.4116854 25.0859713,22.1824027 C25.4606715,22.1537811 25.8065846,22.2636263 26.1235548,22.5119386 C26.4307219,22.7506587 26.6037562,23.0658064 26.6420354,23.4575363 C26.6709782,23.8393647 26.5701452,24.1879301 26.3396921,24.5030778 C26.0804518,24.8183802 25.7585022,24.9950609 25.37431,25.0332747 C22.5791521,25.3386756 20.0961406,24.9616432 17.9252756,23.9015588 C17.5698706,23.7392663 17.3297699,23.4717698 17.204818,23.0993788 C17.0705296,22.7364252 17.0896692,22.3736263 17.2627036,22.0106728 Z M48.0520766,23.5147796 C46.7652116,22.2828106 44.9741818,21.5856798 42.6789873,21.4232325 C42.2744106,21.3851735 41.942969,21.2179301 41.6846624,20.9219667 C41.4247997,20.6258486 41.3096509,20.2867206 41.3376601,19.9048922 C41.3672253,19.5035701 41.530612,19.1741889 41.8278203,18.9164393 C42.1359209,18.6490975 42.4907036,18.5344562 42.8937242,18.5725152 C45.9685068,18.8017979 48.3601772,19.7616292 50.0702917,21.4520089 C50.3581635,21.7289428 50.5059896,22.06312 50.516882,22.4546953 C50.516882,22.8558626 50.3768363,23.199632 50.0983008,23.486158 C49.8197653,23.772684 49.4789873,23.9157923 49.0759667,23.9157923 C48.6822825,23.9157923 48.3399484,23.7822761 48.0520766,23.5147796 Z" id="Fill-70" fill="#0E1516"></path>
                <path d="M36.5286041,51.6434512 C36.0244394,50.0505398 34.2738673,49.231651 31.2768879,49.1866299 C33.1083753,47.8697241 35.626087,47.494703 38.8346911,48.0621854 L37.5369336,51.6434512 L36.5286041,51.6434512" id="Fill-71" fill="#401A1B"></path>
                <path d="M36.6157437,51.6551336 L29.2540046,51.6551336 C29.8079634,50.6307876 30.5113043,49.811744 31.3640275,49.1983122 C34.3610069,49.2433333 36.1115789,50.0622222 36.6157437,51.6551336" id="Fill-72" fill="#CC5A59"></path>
                <path d="M18.2492082,27.9907031 C16.7027918,29.3181292 15.852714,30.9894794 15.6989748,33.0044443 C15.5453913,35.0194091 16.1264256,36.7911672 17.4425446,38.3190997 C18.768,39.8662164 20.4440366,40.7162024 22.4708101,40.8690575 C24.4975835,41.03135 26.2887689,40.4487059 27.8449886,39.1212797 C29.3912494,37.8128831 30.2408604,36.151125 30.3949108,34.1361602 C30.5489611,32.1211953 29.9669931,30.3401545 28.652119,28.7930378 C27.3167048,27.2649506 25.6356888,26.419606 23.6090709,26.2574682 C21.5822975,26.1046131 19.7956247,26.6823064 18.2492082,27.9907031 Z M48.2320732,26.8876088 C50.4992586,27.0689309 52.3680915,28.0145287 53.837016,29.7240927 C55.3355057,31.4621236 55.998389,33.4534176 55.8256659,35.6975104 C55.6529428,37.9609422 54.6912952,39.8232066 52.9438352,41.2843036 C51.2243844,42.7741771 49.2310664,43.4284527 46.963881,43.2469759 C44.6873593,43.0750913 42.810746,42.1248522 41.3309291,40.3964133 C39.9771533,38.8205202 39.31427,37.0154991 39.3422792,34.98135 C36.9692815,34.0072854 34.4733547,33.8592263 31.8498307,34.5373275 C31.6101968,36.8292263 30.5878627,38.7345005 28.7812723,40.2529956 C26.9275332,41.8383261 24.7857666,42.5354569 22.3553501,42.344388 C19.9157529,42.1630659 17.898627,41.1459914 16.3041281,39.2931644 C14.9210984,37.6982418 14.2149565,35.883938 14.1860137,33.8497889 L9.01381236,31.3426862 C8.00517162,30.3017861 6.91981693,29.7240927 5.75743707,29.6092966 C6.37208238,28.6926299 7.39519451,28.5781433 8.82646224,29.265682 L14.3445767,31.8584949 C14.7096293,29.9007734 15.6893272,28.2436567 17.2839817,26.8876088 C19.1377208,25.3022783 21.2846224,24.6003515 23.7242197,24.7818282 C26.1544805,24.9728972 28.166627,25.9946131 29.7615927,27.8474401 C31.0764668,29.3659351 31.7922563,31.0849365 31.907405,33.0044443 C34.8468101,32.2881292 37.3785263,32.4553726 39.5009977,33.5057101 C39.8277712,31.6626299 40.7349565,30.1059211 42.2241098,28.8358929 C43.952897,27.3652038 45.9555515,26.7157242 48.2320732,26.8876088 Z M48.1464897,28.2628409 C46.2543158,28.1195779 44.5877712,28.6592122 43.1468558,29.8815891 C41.7059405,31.1135582 40.9123478,32.665471 40.7691899,34.5373275 C40.624476,36.4187762 41.1675423,38.0707875 42.396833,39.4938254 C43.6261236,40.9357382 45.1868558,41.7286356 47.0790297,41.8717439 C48.9618673,42.024599 50.6190755,41.4801686 52.0506545,40.2386074 C53.5009062,39.0256679 54.297611,37.4787059 54.4423249,35.5972572 C54.5854828,33.7254007 54.0393043,32.0684387 52.7991213,30.6265259 C51.579167,29.2034879 50.0277712,28.4155413 48.1464897,28.2628409 Z" id="Fill-73" fill="#161615"></path>
                <path d="M18.2905618,27.9034944 C19.8369783,26.5950977 21.6236511,26.0174043 23.6504245,26.1702595 C25.6770424,26.3323973 27.3580584,27.1777419 28.6934726,28.7058291 C30.0083467,30.2529458 30.5903147,32.0339866 30.4362643,34.0489515 C30.282214,36.0639163 29.432603,37.7256744 27.8863421,39.034071 C26.3301225,40.3614972 24.5389371,40.9441413 22.5121637,40.7818488 C20.4853902,40.6289937 18.8093536,39.7790077 17.4838982,38.231891 C16.1677792,36.7039585 15.5867449,34.9322004 15.7403284,32.9172356 C15.8940675,30.9022707 16.7441453,29.2309205 18.2905618,27.9034944 Z M48.1878433,28.1756322 C50.0691248,28.3283326 51.6205206,29.1162792 52.8404749,30.5393171 C54.0806579,31.9812299 54.6268364,33.638192 54.4836785,35.5100485 C54.3389646,37.3914972 53.5422598,38.9384592 52.092008,40.1513987 C50.6604291,41.3929599 49.0032209,41.9373903 47.1203833,41.7845351 C45.2282094,41.6414268 43.6674772,40.8485295 42.4381865,39.4066167 C41.2088959,37.9835787 40.6658296,36.3315675 40.8105435,34.4501188 C40.9537014,32.5782623 41.7472941,31.0263495 43.1882094,29.7943804 C44.6291248,28.5720035 46.2956694,28.0323692 48.1878433,28.1756322 Z" id="Fill-74" fill="#FFFFFE"></path>
                <path d="M22.2620966,35.992016 C22.0219959,35.7150821 21.9163392,35.3903423 21.9451264,35.0179513 C21.9740692,34.6551525 22.1276527,34.3540835 22.4063438,34.1155181 C22.6847236,33.8766433 23.0114971,33.7717488 23.3860417,33.8002158 C23.7605863,33.8289921 24.067909,33.9816925 24.3081653,34.2587812 C24.5481104,34.5355603 24.6539227,34.8556588 24.6251355,35.2184577 C24.5961927,35.5910034 24.4426092,35.8964042 24.1640737,36.1354338 C23.8855383,36.3741539 23.5589204,36.4792031 23.1842202,36.4505814 C22.8096756,36.4218051 22.5023529,36.2689499 22.2620966,35.992016 Z M48.5419959,37.5103564 C48.5139868,37.8829021 48.3599364,38.1884577 48.081401,38.4273325 C47.8028655,38.6660526 47.476092,38.7712565 47.1010806,38.7424802 C46.7276252,38.7138585 46.4195245,38.5610034 46.1798907,38.2840695 C45.9387007,38.0071356 45.8328884,37.6823958 45.8624536,37.3100048 C45.8920188,36.9470512 46.0445131,36.646137 46.3230486,36.4075716 C46.601584,36.1686968 46.9283575,36.0636475 47.3033689,36.0924239 C47.6783804,36.1208909 47.984925,36.2739007 48.2261149,36.5506799 C48.4657488,36.8276138 48.5715612,37.1475575 48.5419959,37.5103564 Z" id="Fill-75" fill="#875233"></path>
            </g>
            <g id="Group-42">
                <mask id="mask-2" fill="white">
                    <use xlink:href="#path-1"></use>
                </mask>
                <g id="Clip-41"></g>
                <path d="M158.712,26.736 L158.712,65.452 C158.712,79.8 147.081,91.432 132.733,91.432 L116.737,91.432 L102.571,122.757 L98.187,91.432 L26.656,91.432 C12.308,91.432 0.677,79.8 0.677,65.452 L0.677,26.736 C0.677,12.388 12.308,0.757 26.656,0.757 L132.733,0.757 C147.081,0.757 158.712,12.388 158.712,26.736" id="Fill-40" fill="#C7D8E6" mask="url(#mask-2)"></path>
            </g>
            <g id="Group-3" transform="translate(55.000000, 22.000000)">
                <circle id="Oval" fill="#F8374E" cx="25" cy="25" r="25"></circle>
                <path d="M32.902916,19.046146 L26.8250204,25.1240416 L32.902916,31.2019372 C33.3630302,31.6620514 33.3630302,32.4429649 32.902916,32.9029976 C32.6426387,33.1632749 32.3822798,33.2299144 32.055363,33.2299144 C31.7284462,33.2299144 31.4681688,33.096717 31.2078915,32.9029976 L25.12396,26.825102 L19.0400285,32.9029976 C18.7797512,33.1632749 18.5193923,33.2299144 18.1925571,33.2299144 C17.8657219,33.2299144 17.605363,33.096717 17.3450856,32.9029976 C16.8849715,32.4428834 16.8849715,31.6619698 17.3450856,31.2019372 L23.4229812,25.1240416 L17.3450856,19.046146 C16.8849715,18.5860318 16.8849715,17.8051183 17.3450856,17.3450856 C17.8051998,16.8849715 18.5861134,16.8849715 19.046146,17.3450856 L25.1240416,23.4229812 L31.2019372,17.3450856 C31.6620514,16.8849715 32.4429649,16.8849715 32.9029976,17.3450856 C33.3629486,17.8051998 33.3629486,18.5194739 32.902916,19.046146 Z" id="Path" fill="#FFFFFF"></path>
            </g>
        </g>
    </g>
</svg>