
<svg width="175px" height="256px" viewBox="0 0 175 256" version="1.1" xmlns="http://www.w3.org/2000/svg" xmlns:xlink="http://www.w3.org/1999/xlink">
    <!-- Generator: Sketch 44.1 (41455) - http://www.bohemiancoding.com/sketch -->
    <desc>Created with Sketch.</desc>
    <defs></defs>
    <g id="Page-1" stroke="none" stroke-width="1" fill="none" fill-rule="evenodd">
        <g id="XMLID_140_">
            <g id="XMLID_184_" transform="translate(13.257576, 130.315245)" stroke-width="1.32575758" stroke="#414042">
                <polyline id="XMLID_182_" points="56.5435606 100.746253 0 0.396899225 148.683712 0.396899225 93.3333333 100.746253"></polyline>
                <polyline id="XMLID_181_" points="64.8958333 100.746253 33.0113636 0.396899225 116.86553 0.396899225 85.6439394 100.746253"></polyline>
                <polyline id="XMLID_183_" points="70.7291667 100.746253 59.3939394 0.396899225 89.2234848 0.396899225 78.1534091 100.746253"></polyline>
            </g>
            <ellipse id="XMLID_176_" fill="#EF3946" fill-rule="nonzero" cx="87.5662879" cy="87.2516796" rx="87.1022727" ry="86.9209302"></ellipse>
            <ellipse id="XMLID_177_" fill="#F9E3B2" fill-rule="nonzero" cx="87.5662879" cy="87.2516796" rx="55.6818182" ry="86.9209302"></ellipse>
            <ellipse id="XMLID_178_" fill="#EF3946" fill-rule="nonzero" cx="87.5662879" cy="87.2516796" rx="22.4715909" ry="86.9209302"></ellipse>
            <path d="M97.5757576,255.8677 L78.6174242,255.8677 C75.1704545,255.8677 72.3200758,253.883204 71.9886364,251.369509 L69.7348485,230.995349 L106.524621,230.995349 L104.138258,251.369509 C103.939394,253.949354 101.022727,255.8677 97.5757576,255.8677 Z" id="XMLID_179_" fill="#B25538" fill-rule="nonzero"></path>
            <rect id="XMLID_180_" fill="#642D10" fill-rule="nonzero" x="68.5416667" y="227.621705" width="39.2424242" height="3.37364341"></rect>
        </g>
    </g>
</svg>