<svg width="307px" height="289px" viewBox="0 0 307 289" version="1.1" xmlns="http://www.w3.org/2000/svg" xmlns:xlink="http://www.w3.org/1999/xlink">
    <!-- Generator: Sketch 44.1 (41455) - http://www.bohemiancoding.com/sketch -->
    <desc>Created with Sketch.</desc>
    <defs></defs>
    <g id="Page-1" stroke="none" stroke-width="1" fill="none" fill-rule="evenodd">
        <g id="logo" transform="translate(-1.000000, -6.000000)">
            <g id="Group-58" transform="translate(85.000000, 73.000000)">
                <path d="M69.7164353,0.944680851 C34.8677866,0.944680851 11.412111,22.3615404 3.36967853,49.1328511 C-1.88883499,66.6387319 1.97440825,89.9884085 9.53630015,106.378621 C18.1567056,125.062519 34.8677866,134.130511 34.8677866,160.901821 L104.56603,160.901821 C104.56603,134.130511 121.276165,125.062519 129.897516,106.378621 C137.459408,89.9884085 141.322651,66.6387319 136.064138,49.1328511 C128.021706,22.3615404 104.56603,0.944680851 69.7164353,0.944680851" id="Fill-153"></path>
                <path d="M129.047113,106.01114 C126.177113,112.229974 122.326167,117.467285 118.601032,122.531719 C111.374005,132.358289 103.905761,142.512664 103.632383,159.956196 L35.907383,159.956196 C35.6340046,142.512664 28.1657614,132.358289 20.9387343,122.531719 C17.2135992,117.467285 13.3626533,112.229974 10.4926533,106.01114 C3.52765327,90.9160851 -1.06586025,67.5768 4.37522084,49.4663234 C13.1734641,20.1793277 38.2315722,1.98666383 69.770356,1.98666383 C101.30914,1.98666383 126.366302,20.1793277 135.163599,49.4663234 C140.60468,67.5768 136.012113,90.9160851 129.047113,106.01114 Z M69.770356,0 C37.3177884,0 11.530356,18.7358553 2.4700857,48.8947915 C-3.11950889,67.5031149 1.56386948,91.4073191 8.68589651,106.84246 C11.6400857,113.244562 15.5515722,118.563115 19.335356,123.707847 C26.8385992,133.9104 33.9265722,143.546145 33.9265722,160.95 L33.9265722,161.94286 L105.613194,161.94286 L105.613194,160.95 C105.613194,143.546145 112.701167,133.9104 120.20441,123.707847 C123.988194,118.563115 127.89968,113.244562 130.853869,106.84246 C137.975897,91.4073191 142.659275,67.5031149 137.06968,48.8947915 C128.00941,18.7358553 102.221978,0 69.770356,0 L69.770356,0 Z" id="Fill-154" fill="#FFFFFF" fill-rule="nonzero"></path>
                <path d="M100.071622,78.5190383 L83.4731081,78.5190383 C82.9698649,78.5190383 82.5451351,78.8950213 82.4855405,79.3938128 L81.5925676,86.8095574 L78.7263514,66.978817 C78.6544595,66.4866383 78.2372973,66.1465532 77.7312162,66.1276596 C77.2336486,66.132383 76.8155405,66.5055319 76.755,66.9996 L74.2577027,87.1505872 L70.4758108,69.3934213 C70.3783784,68.9352511 69.9735135,68.6074468 69.5052703,68.6065021 C69.5043243,68.6065021 69.5033784,68.6065021 69.5024324,68.6065021 C69.0351351,68.6065021 68.6312162,68.9314723 68.5309459,69.3877532 L64.6241892,87.2469447 L61.8875676,70.6772426 C61.8081081,70.1973447 61.3928378,69.8449787 60.9056757,69.8449787 C60.4194595,69.8449787 60.0032432,70.1973447 59.9247297,70.6772426 L56.9468919,88.7017532 L53.2397297,78.8534553 C53.0940541,78.4661362 52.7232432,78.2101277 52.3089189,78.2101277 L40.7248649,78.2101277 C40.1752703,78.2101277 39.7297297,78.6541277 39.7297297,79.2029872 C39.7297297,79.7518468 40.1752703,80.1967915 40.7248649,80.1967915 L51.6202703,80.1967915 L56.3925676,92.8734638 C56.5505405,93.2947915 56.9743243,93.5621362 57.4217568,93.5130128 C57.8691892,93.4686128 58.2314865,93.1294723 58.3052703,92.6854723 L60.9056757,76.9414213 L63.5060811,92.6854723 C63.5836486,93.1559234 63.9847297,93.5045106 64.4624324,93.5167915 C64.9297297,93.5309617 65.3572973,93.2022128 65.4594595,92.7364851 L69.4901351,74.3133191 L73.5454054,93.3505277 C73.6456757,93.8247574 74.0704054,94.1468936 74.5613514,94.1355574 C75.0466216,94.1147745 75.4458108,93.7472936 75.5044595,93.2655064 L77.8172973,74.5986128 L80.6977027,94.524766 C80.7686486,95.0141106 81.1877027,95.3759234 81.6814865,95.3759234 C81.6862162,95.3759234 81.69,95.3759234 81.6937838,95.3759234 C82.1922973,95.3702553 82.6104054,94.9961617 82.6690541,94.5020936 L84.3547297,80.5057021 L100.071622,80.5057021 C100.621216,80.5057021 101.066757,80.0607574 101.066757,79.5128426 C101.066757,78.963983 100.621216,78.5190383 100.071622,78.5190383" id="Fill-155" fill="#FFD205" fill-rule="nonzero"></path>
                <polyline id="Fill-156" fill="#FFFFFF" fill-rule="nonzero" points="41.6925676 79.3531915 39.7297297 79.6762723 53.8044595 164.897821 69.6944595 164.897821 69.6944595 162.911157 55.492973 162.911157 41.6925676 79.3531915"></polyline>
                <polyline id="Fill-157" fill="#FFFFFF" fill-rule="nonzero" points="83.2801351 162.629643 69.0540541 162.629643 69.0540541 164.616306 84.9194595 164.616306 101.46973 79.7320085 99.5172973 79.3531915 83.2801351 162.629643"></polyline>
                <path d="M69.290472,219.658136 C62.8873639,219.658136 53.2557422,213.822843 48.6612828,210.774357 L89.4126341,210.941566 C84.9912828,213.93337 75.6926341,219.658136 69.290472,219.658136 Z M92.5323639,208.967183 L45.4583098,208.774468 C45.4573639,208.774468 45.455472,208.774468 45.454526,208.774468 C45.0250666,208.774468 44.6447963,209.04937 44.510472,209.455583 C44.3742557,209.86463 44.5170936,210.312409 44.8642557,210.567472 C45.4781747,211.019974 60.014526,221.6448 69.290472,221.6448 C78.5720936,221.6448 92.5380395,211.198519 93.1273639,210.753574 C93.4679044,210.496621 93.6069585,210.051677 93.4716882,209.646409 C93.3373639,209.24303 92.9589855,208.969072 92.5323639,208.967183 L92.5323639,208.967183 Z" id="Fill-159" fill="#FFFFFF" fill-rule="nonzero"></path>
                <path d="M107.652432,167.830111 C107.652432,169.107319 106.611892,170.145523 105.333919,170.145523 L33.6321622,170.145523 C32.3541892,170.145523 31.3136486,169.107319 31.3136486,167.830111 L31.3136486,163.95314 C31.3136486,162.676877 32.3541892,161.637728 33.6321622,161.637728 L105.333919,161.637728 C106.611892,161.637728 107.652432,162.676877 107.652432,163.95314 L107.652432,167.830111 Z M105.333919,159.651064 L33.6321622,159.651064 C31.2568919,159.651064 29.3243243,161.581047 29.3243243,163.95314 L29.3243243,167.830111 C29.3243243,170.202204 31.2568919,172.132187 33.6321622,172.132187 L105.333919,172.132187 C107.709189,172.132187 109.641757,170.202204 109.641757,167.830111 L109.641757,163.95314 C109.641757,161.581047 107.709189,159.651064 105.333919,159.651064 L105.333919,159.651064 Z" id="Fill-161" fill="#FFFFFF" fill-rule="nonzero"></path>
                <path d="M107.652432,188.6112 C107.652432,189.888409 106.611892,190.926613 105.333919,190.926613 L33.6321622,190.926613 C32.3541892,190.926613 31.3136486,189.888409 31.3136486,188.6112 L31.3136486,184.737064 C31.3136486,183.459855 32.3541892,182.420706 33.6321622,182.420706 L105.333919,182.420706 C106.611892,182.420706 107.652432,183.459855 107.652432,184.737064 L107.652432,188.6112 Z M105.333919,180.434043 L33.6321622,180.434043 C31.2568919,180.434043 29.3243243,182.364026 29.3243243,184.737064 L29.3243243,188.6112 C29.3243243,190.983294 31.2568919,192.913277 33.6321622,192.913277 L105.333919,192.913277 C107.709189,192.913277 109.641757,190.983294 109.641757,188.6112 L109.641757,184.737064 C109.641757,182.364026 107.709189,180.434043 105.333919,180.434043 L105.333919,180.434043 Z" id="Fill-163" fill="#FFFFFF" fill-rule="nonzero"></path>
                <path d="M93.1851351,203.901804 C93.1851351,206.705617 92.3839189,208.279455 92.0433784,208.47406 L46.6635135,208.482562 C46.3333784,208.336136 45.5028378,206.757574 45.5028378,203.901804 L45.5028378,197.382562 C45.5028378,194.527736 46.3333784,192.950119 46.6095946,192.812196 L92.0263514,192.802749 C92.3555405,192.951064 93.1851351,194.53057 93.1851351,197.382562 L93.1851351,203.901804 Z M92.0812162,190.825532 L46.6095946,190.825532 C44.4821622,190.825532 43.5135135,194.224494 43.5135135,197.382562 L43.5135135,203.901804 C43.5135135,207.060817 44.4821622,210.460723 46.6095946,210.460723 L92.0812162,210.460723 C94.2067568,210.460723 95.1744595,207.060817 95.1744595,203.901804 L95.1744595,197.382562 C95.1744595,194.224494 94.2067568,190.825532 92.0812162,190.825532 L92.0812162,190.825532 Z" id="Fill-165" fill="#FFFFFF" fill-rule="nonzero"></path>
                <path d="M107.652432,199.003634 C107.652432,200.280843 106.611892,201.319991 105.333919,201.319991 L33.6321622,201.319991 C32.3541892,201.319991 31.3136486,200.280843 31.3136486,199.003634 L31.3136486,195.127609 C31.3136486,193.851345 32.3541892,192.812196 33.6321622,192.812196 L105.333919,192.812196 C106.611892,192.812196 107.652432,193.851345 107.652432,195.127609 L107.652432,199.003634 Z M105.333919,190.825532 L33.6321622,190.825532 C31.2568919,190.825532 29.3243243,192.755515 29.3243243,195.127609 L29.3243243,199.003634 C29.3243243,201.375728 31.2568919,203.306655 33.6321622,203.306655 L105.333919,203.306655 C107.709189,203.306655 109.641757,201.375728 109.641757,199.003634 L109.641757,195.127609 C109.641757,192.755515 107.709189,190.825532 105.333919,190.825532 L105.333919,190.825532 Z" id="Fill-167" fill="#FFFFFF" fill-rule="nonzero"></path>
                <path d="M107.652432,178.2216 C107.652432,179.497864 106.611892,180.537013 105.333919,180.537013 L33.6321622,180.537013 C32.3541892,180.537013 31.3136486,179.497864 31.3136486,178.2216 L31.3136486,174.34463 C31.3136486,173.067421 32.3541892,172.029217 33.6321622,172.029217 L105.333919,172.029217 C106.611892,172.029217 107.652432,173.067421 107.652432,174.34463 L107.652432,178.2216 Z M105.333919,170.042553 L33.6321622,170.042553 C31.2568919,170.042553 29.3243243,171.972536 29.3243243,174.34463 L29.3243243,178.2216 C29.3243243,180.593694 31.2568919,182.523677 33.6321622,182.523677 L105.333919,182.523677 C107.709189,182.523677 109.641757,180.593694 109.641757,178.2216 L109.641757,174.34463 C109.641757,171.972536 107.709189,170.042553 105.333919,170.042553 L105.333919,170.042553 Z" id="Fill-169" fill="#FFFFFF" fill-rule="nonzero"></path>
            </g>
            <g id="UX-DESIGN-TRIVIA-APP" font-weight="700" font-size="36" font-family="Impact" fill="#444444" font-style="condensed">
                <text>
                    <tspan x="0.9938262" y="36">UX DESIGN TRIVIA APP</tspan>
                </text>
            </g>
        </g>
    </g>
</svg>