
<svg width="159px" height="350px" viewBox="0 0 159 350" version="1.1" xmlns="http://www.w3.org/2000/svg" xmlns:xlink="http://www.w3.org/1999/xlink">
    <!-- Generator: Sketch 50.2 (55047) - http://www.bohemiancoding.com/sketch -->
    <desc>Created with Sketch.</desc>
    <defs>
        <polygon id="path-1" points="0.463815266 0.516401674 0.124610245 0.0538493724 0.568905922 0.449818689"></polygon>
        <path d="M158.712,26.736 L158.712,65.452 C158.712,79.8 147.081,91.432 132.733,91.432 L116.737,91.432 L102.571,122.757 L98.187,91.432 L26.656,91.432 C12.308,91.432 0.677,79.8 0.677,65.452 L0.677,26.736 C0.677,12.388 12.308,0.757 26.656,0.757 L132.733,0.757 C147.081,0.757 158.712,12.388 158.712,26.736" id="path-3"></path>
    </defs>
    <g id="Page-1" stroke="none" stroke-width="1" fill="none" fill-rule="evenodd">
        <g id="Group-6">
            <g id="Group" transform="translate(25.000000, 130.000000)">
                <path d="M34.4333436,51.9316597 L41.8899483,51.9316597 L41.8899483,63.352636 C40.3446145,66.2097211 37.8592318,65.6888703 34.4333436,61.7902371 L34.4333436,51.9316597" id="Fill-3" fill="#E18774"></path>
                <polyline id="Fill-4" fill="#5AA0C7" points="90.9292919 89.7176569 83.8531215 83.4247978 87.123426 80.1860112 93.6920461 85.7826639 90.9292919 89.7176569"></polyline>
                <path d="M83.8531215,83.4247978 L90.9292919,89.7176569 L76.2695531,110.599861 L56.239433,91.5643375 C53.147852,76.9613389 53.3357095,69.6645188 56.8033101,69.6740307 L73.5914413,93.5530823 L83.8531215,83.4247978" id="Fill-5" fill="#4A8DB2"></path>
                <path d="M87.7011564,81.4644351 L89.942507,77.7710739 C91.3427612,75.3466248 94.58475,73.9261367 99.6686257,73.5094561 C100.702299,74.7216039 99.3490852,75.7585495 95.6091369,76.6202929 C99.7907179,76.6584937 103.422732,76.8855509 106.505027,77.3023849 C107.77375,77.4821897 108.473725,77.9132915 108.605256,78.5949233 C108.840306,78.7560112 108.96255,78.9548396 108.971837,79.1917155 L107.731429,79.4048117 C108.003929,79.5847699 108.210511,79.7550628 108.351633,79.9159972 C108.483163,80.0677266 107.961608,80.3090516 106.787117,80.6405858 L107.068904,81.2229568 L101.219135,83.8934868 L92.0708994,85.1863319 L87.7011564,81.4644351" id="Fill-6" fill="#EFA595"></path>
                <path d="M95.4186913,81.0382427 C95.3807849,81.032106 95.3501858,81.0133891 95.3271983,80.9814784 C95.3031453,80.9495676 95.2938589,80.9139749 95.2988827,80.8748536 C95.3049721,80.8366527 95.3238492,80.8058159 95.3552095,80.7826499 C95.3870265,80.75841 95.4220405,80.7490516 95.4608603,80.7542678 L100.359314,81.457378 C103.999701,79.9514365 106.177418,79.6482845 106.892768,80.5482287 C106.918648,80.579219 106.93037,80.6148117 106.927934,80.6547001 C106.924737,80.6922873 106.908296,80.7231241 106.878458,80.7472106 C106.847707,80.7732915 106.812388,80.7851046 106.772807,80.7826499 C106.735662,80.7792748 106.705215,80.7625523 106.681466,80.7327894 C106.008894,79.9508229 103.925106,80.2845049 100.429799,81.7342957 C100.404832,81.7459554 100.3788,81.7505579 100.352311,81.7487169 L95.4186913,81.0382427 Z M107.801913,79.2839191 C107.834948,79.3035565 107.855957,79.3319386 107.865243,79.369219 C107.875443,79.4068061 107.870723,79.4422455 107.851237,79.4756904 C107.831904,79.5091353 107.803588,79.5303068 107.766747,79.5396653 C107.72945,79.5497908 107.694131,79.5450349 107.660944,79.5253975 C106.084707,78.5771269 103.293789,78.7475732 99.2880391,80.0367364 C99.251655,80.0493166 99.2163366,80.0470153 99.1823883,80.0295258 C99.1475265,80.0109623 99.1239302,79.9824268 99.1117514,79.9445328 C99.0992682,79.9078661 99.1015517,79.8724268 99.1187542,79.8379079 C99.1374791,79.8027755 99.1657947,79.7791492 99.2035489,79.7668759 C103.316777,78.4422734 106.183203,78.2813389 107.801913,79.2839191 Z M98.3084092,78.3037378 C98.2787235,78.2798047 98.2621299,78.2489679 98.2590852,78.2113808 C98.2564972,78.1716457 98.2682193,78.136053 98.2942514,78.1049093 C98.318,78.074993 98.3484469,78.058424 98.3858966,78.0552022 C104.173249,77.5299024 107.608119,77.6719665 108.69005,78.4813947 C108.721411,78.5045607 108.740135,78.5350907 108.746225,78.5735983 C108.751553,78.6127197 108.741962,78.648159 108.718214,78.6802232 C108.695226,78.7119805 108.664779,78.7308508 108.626416,78.7369874 C108.587901,78.7418968 108.552582,78.7325384 108.520765,78.7086053 C107.460147,77.9458159 104.091194,77.822622 98.4140601,78.3393305 C98.3746313,78.3417852 98.3394651,78.3298187 98.3084092,78.3037378 Z" id="Fill-7" fill="#C26F5D"></path>
                <polyline id="Fill-8" fill="#5AA0C7" points="87.123426 80.1860112 93.6850433 85.7757601 90.9221369 89.7105997 83.8462709 83.4177406 87.123426 80.1860112"></polyline>
                <path d="M91.5776592,86.535788 C91.5776592,86.7629986 91.4978883,86.9572245 91.3378897,87.118159 C91.1783478,87.2790934 90.9856187,87.3596374 90.760007,87.3596374 C90.5346997,87.3596374 90.3419707,87.2790934 90.1821243,87.118159 C90.0224302,86.9572245 89.942507,86.7629986 89.942507,86.535788 C89.942507,86.308424 90.0224302,86.1143515 90.1821243,85.9532636 C90.3419707,85.7923291 90.5346997,85.7117852 90.760007,85.7117852 C90.9856187,85.7117852 91.1783478,85.7923291 91.3378897,85.9532636 C91.4978883,86.1143515 91.5776592,86.308424 91.5776592,86.535788" id="Fill-9" fill="#FFFFFE"></path>
                <polyline id="Fill-10" fill="#559AC0" points="44.1029832 63.1396932 56.8033101 69.5319665 58.2128506 109.320976 28.8796718 109.320976 19.8582472 71.236583 32.5444162 63.1396932 44.1029832 63.1396932"></polyline>
                <path d="M38.1122458,216.811994 L38.1122458,219.866527 L23.9038827,219.866527 L23.9038827,216.87643 L25.9194693,210.491213 L34.6588031,210.491213 L35.3634972,213.757462 L38.1122458,216.811994 Z M76.9602416,218.729707 L53.7586173,218.729707 L55.2528003,210.491213 L62.8716872,210.491213 L67.798,213.757462 L76.9602416,215.320781 L76.9602416,218.729707 Z" id="Fill-11" fill="#13110F"></path>
                <path d="M46.4993087,130.358438 L44.8076774,130.358438 L35.7159204,210.632357 C32.160176,211.724686 28.8944385,211.678661 25.9194693,210.491213 L29.0204888,112.460809 C39.9357123,108.488689 49.6195098,108.488689 58.0718813,112.460809 L65.1340461,209.922036 C61.0861271,211.440865 57.6043687,211.631102 54.6889232,210.491213 L46.4993087,130.358438" id="Fill-12" fill="#221916"></path>
                <polyline id="Fill-13" fill="#11100E" points="28.8796718 112.601953 28.8796718 109.036848 50.0372416 109.313919 50.0372416 109.036848 58.2128506 109.036848 58.2128506 112.601953 28.8796718 112.601953"></polyline>
                <polyline id="Fill-14" fill="#EBA52D" points="50.0372416 109.036848 50.0372416 113.454951 44.1031355 113.454951 44.1031355 109.036848 45.3717067 109.036848 45.3717067 112.601953 48.9096397 112.601953 48.9096397 109.036848 50.0372416 109.036848"></polyline>
                <path d="M23.9742151,116.85007 L27.6954385,113.099024 L31.4308198,113.099024 L34.3205377,113.867643 C34.3768645,114.643933 33.7660992,115.08424 32.4880894,115.187029 L34.8137779,115.785356 C35.2272472,116.23947 34.9970684,116.774895 34.1232416,117.390098 L35.0957165,117.703068 C35.5280628,118.375035 35.0582668,118.867503 33.686176,119.17894 C33.5733701,119.605439 33.2162277,119.875453 32.6149008,119.988982 L28.1746732,120.415481 C26.1074791,123.9947 23.8519707,124.75258 21.408757,122.687587 L16.7570754,118.000697 L20.5629413,113.738773 L23.9742151,116.85007" id="Fill-15" fill="#EFA595"></path>
                <path d="M26.6664846,115.429428 C26.628426,115.437099 26.5932598,115.429428 26.5608338,115.40795 C26.5273422,115.384937 26.5060293,115.354254 26.497352,115.3159 C26.489588,115.277545 26.496743,115.242259 26.5185126,115.208508 C26.5407388,115.174756 26.571338,115.153278 26.6101578,115.145607 L30.1340852,114.435286 C30.1552458,114.432218 30.1765587,114.435286 30.197567,114.441423 L32.5232556,115.053556 C32.5604008,115.062762 32.5885642,115.082706 32.607898,115.116457 C32.6272318,115.150209 32.6321034,115.185495 32.6219036,115.223849 C32.6126173,115.260669 32.5914567,115.288285 32.5584218,115.308229 C32.5250824,115.328173 32.4899162,115.332775 32.4527709,115.32357 L30.1694036,114.726778 L26.6664846,115.429428 Z M27.4839846,118.270711 C27.4454693,118.269177 27.4125866,118.25537 27.3853366,118.227755 C27.3574777,118.200139 27.3434721,118.167922 27.3431676,118.128033 C27.3434721,118.089679 27.3574777,118.055927 27.3853366,118.028312 C27.4125866,118.000697 27.4454693,117.98689 27.4839846,117.98689 L30.7472863,117.98689 L33.7073366,118.483961 C33.7376313,118.488563 33.7633589,118.503905 33.784824,118.525384 C33.807507,118.548396 33.821817,118.574477 33.8271453,118.603626 C33.8580489,118.829149 33.8580489,119.027057 33.8271453,119.200418 C33.8186201,119.238773 33.7973073,119.27099 33.7638156,119.292469 C33.7315419,119.317015 33.6963757,119.32622 33.6580126,119.321618 C33.6217807,119.312413 33.5936173,119.290934 33.5733701,119.257183 C33.5494693,119.228033 33.5400307,119.194282 33.5452067,119.158996 C33.5662151,119.036262 33.5709344,118.899721 33.5593645,118.746304 L30.7049651,118.270711 L27.4839846,118.270711 Z M26.7932961,116.779498 C26.7535628,116.781032 26.7182444,116.768759 26.6876453,116.744212 C26.6579595,116.719665 26.6415182,116.688982 26.638169,116.650628 C26.6357332,116.610739 26.6476075,116.575453 26.6734874,116.54477 C26.6973883,116.514086 26.7279874,116.497211 26.7651327,116.494142 L30.6414832,116.139749 C30.6606648,116.138215 30.6792374,116.139749 30.6979623,116.145886 L34.1655628,117.255091 C34.2031648,117.267364 34.2314804,117.290377 34.2499008,117.325662 C34.2674078,117.359414 34.2696913,117.396234 34.2570559,117.43152 C34.2450293,117.469874 34.221433,117.499024 34.1865712,117.517434 C34.1524707,117.53431 34.1173045,117.537378 34.0809204,117.525105 L30.6414832,116.42357 L26.7932961,116.779498 Z" id="Fill-16" fill="#C26F5D"></path>
                <path d="M25.3555922,84.4474756 L12.8668715,103.532245 L22.6773282,114.591771 L17.462074,120.699303 L0.124071229,105.343333 L19.8582472,71.236583 C23.5870824,71.9653138 25.4193785,76.3689958 25.3555922,84.4474756" id="Fill-17" fill="#559AC0"></path>
                <polyline id="Fill-18" fill="#79BEDE" points="22.6773282 114.591771 17.462074 120.699303 13.7053799 117.368619 19.1534008 110.613668 22.6773282 114.591771"></polyline>
                <path d="M17.1799832,117.560391 C17.1799832,117.796653 17.095493,117.996095 16.9263603,118.157183 C16.766514,118.327476 16.5692179,118.411855 16.3341676,118.411855 C16.0992696,118.411855 15.8974064,118.327476 15.7281215,118.157183 C15.5684274,117.996095 15.4885042,117.796653 15.4885042,117.560391 C15.4885042,117.322594 15.5684274,117.120084 15.7281215,116.949791 C15.8974064,116.788703 16.0992696,116.707392 16.3341676,116.707392 C16.5692179,116.707392 16.766514,116.788703 16.9263603,116.949791 C17.095493,117.120084 17.1799832,117.322594 17.1799832,117.560391" id="Fill-19" fill="#FFFFFE"></path>
                <polyline id="Fill-20" fill="#559AC0" points="37.9431131 67.2307113 37.0551285 69.5462343 30.5709986 63.7219107 33.3900796 57.8837796 39.7333925 62.5857043 42.5523212 57.3153696 46.5133142 62.0174477 44.6667081 67.8414644 43.0740293 66.1511158 39.7333925 62.5857043 37.9431131 67.2307113"></polyline>
                <polyline id="Fill-21" fill="#F1AD4D" points="43.0740293 66.1511158 42.1295656 70.1143375 48.7686704 99.2351883 45.5266816 104.77523 40.7200251 99.5193166 40.0151788 70.1143375 37.9431131 67.2307113 39.7333925 62.5857043 43.0740293 66.1511158"></polyline>
                <g id="Group-24" transform="translate(30.446927, 63.668061)">
                    <mask id="mask-2" fill="white">
                        <use xlink:href="#path-1"></use>
                    </mask>
                    <g id="Clip-23"></g>
                    <polygon id="Fill-22" fill="#73BA9E" mask="url(#mask-2)" points="0.124610245 0.516401674 0.568905922 0.516401674 0.568905922 0.0538493724 0.124610245 0.0538493724"></polygon>
                </g>
                <polyline id="Fill-25" fill="#4C89AA" points="36.7733422 72.2451464 30.9075894 64.184463 31.0118701 64.1178801 37.0551285 69.5462343 37.9449399 67.2334728 38.5864567 68.1262064 36.7733422 72.2451464"></polyline>
                <polyline id="Fill-26" fill="#73BA9E" points="46.2333547 64.2119247 45.8746899 64.0313529 46.5133142 62.0174477 46.2333547 64.2119247"></polyline>
                <polyline id="Fill-27" fill="#4C89AA" points="45.3717067 70.966569 42.7065349 67.6929568 43.0740293 66.1511158 40.2523603 63.1396932 43.0740293 66.1511158 44.6667081 67.8414644 45.8746899 64.0313529 46.2333547 64.2119247 45.3717067 70.966569"></polyline>
                <polyline id="Fill-28" fill="#4C89AA" points="44.6667081 67.8414644 43.0740293 66.1511158 39.7333925 62.5857043 44.6667081 67.8414644"></polyline>
                <polyline id="Fill-29" fill="#D69A43" points="38.5864567 68.1262064 37.9449399 67.2334728 39.7333925 62.5857043 43.0740293 66.1511158 42.7065349 67.6929568 40.1563003 64.5601813 38.5864567 68.1262064"></polyline>
                <path d="M58.5087947,30.9362343 L59.1714721,42.6697211 L59.3404525,45.8660112 C59.4908603,48.583947 58.706243,50.9040725 56.9864483,52.8265411 C55.2762444,54.7585216 53.1336941,55.7244351 50.5587975,55.7244351 L27.9212025,55.7244351 C25.3463059,55.7244351 23.0862304,54.7585216 21.140824,52.8265411 C19.2145992,50.9040725 18.1762067,48.583947 18.0257989,45.8660112 L17.8988352,43.5079916 C15.0327137,46.8224128 12.3827654,45.7382148 9.94899022,40.2549372 C8.26679749,36.4764296 8.54386453,33.8482427 10.7804958,32.3709902 C13.1297807,30.9314784 15.309933,31.1918271 17.3209525,33.1521897 L16.4612835,17.8390237 C16.3107235,15.1210879 17.0906215,12.796053 18.8009777,10.8642259 C20.5300587,8.94175732 22.6821997,7.98059972 25.2569441,7.98059972 L47.8946913,7.98059972 C50.469588,7.98059972 52.7203771,8.94175732 54.646602,10.8642259 C56.5824176,12.796053 57.6256816,15.1210879 57.7759372,17.8390237 L58.5087947,30.9362343" id="Fill-30" fill="#EFA595"></path>
                <path d="M58.5087947,30.9362343 C59.5709358,30.0365969 60.5622877,29.9465411 61.4830028,30.6663738 C62.6483589,31.5850349 62.9208589,34.1843794 62.300655,38.4650209 C61.9436648,40.9842817 60.9005531,42.3857462 59.1714721,42.6697211 L58.5087947,30.9362343" id="Fill-31" fill="#E18774"></path>
                <path d="M33.1787779,49.7296653 C36.9281648,48.4607531 40.3158422,49.1853417 43.3418101,51.9031241 C42.2988506,52.405258 41.0114022,52.6372245 39.4794651,52.5993305 C36.4725265,52.4667782 34.3721453,51.5102232 33.1787779,49.7296653" id="Fill-32" fill="#CC5A59"></path>
                <path d="M33.1787779,49.7296653 C32.3894413,48.5555649 31.9946969,47.0259972 31.9946969,45.141576 L46.386655,47.7696095 C45.9168589,49.7582008 44.9017584,51.1361925 43.3418101,51.9031241 C40.3158422,49.1853417 36.9281648,48.4607531 33.1787779,49.7296653" id="Fill-33" fill="#401A1B"></path>
                <path d="M43.0458659,31.035802 C43.018007,31.0080335 43.0038492,30.9748954 43.0035447,30.9362343 C43.0038492,30.8974198 43.018007,30.8642817 43.0458659,30.8368201 C43.0731159,30.8085914 43.1061508,30.794477 43.144514,30.7941702 C43.1830293,30.7946304 43.2157598,30.8087448 43.243162,30.8368201 C46.9522067,34.6331241 48.1880475,37.9809902 46.9503799,40.8799582 C46.5213827,41.9144491 45.532162,42.4115202 43.9831746,42.3714784 C43.9466383,42.3711715 43.9161913,42.3567503 43.8915293,42.3289819 C43.8635182,42.30106 43.8495126,42.2679219 43.8493603,42.2295676 C43.849817,42.1902929 43.8636704,42.1571548 43.8915293,42.13 C43.9215196,42.1017713 43.9566858,42.0876569 43.9973324,42.0873501 C45.3988045,42.1230962 46.2986634,41.682636 46.696757,40.7662762 C47.8647011,37.9644212 46.6477374,34.7208787 43.0458659,31.035802" id="Fill-34" fill="#C26F5D"></path>
                <path d="M15.2137207,37.3143933 C15.5629469,38.0619944 15.8706131,39.0279079 16.1368715,40.2122873 C16.1446355,40.2503347 16.1376327,40.2859275 16.1158631,40.3189121 C16.0937891,40.352357 16.0631899,40.373682 16.0240656,40.3827336 C15.9864637,40.3904045 15.9511453,40.3835007 15.9184148,40.3614086 C15.8850754,40.3391632 15.864067,40.3084798 15.854933,40.269205 C15.6099874,39.1715063 15.3280489,38.2672664 15.0091173,37.5558717 C14.269257,37.890781 13.818338,38.3335425 13.6562081,38.8841562 C13.4940782,39.4720502 13.6563603,40.1846722 14.1424455,41.0220223 C14.1617793,41.0556206 14.1664986,41.09106 14.1564511,41.1284937 C14.1471648,41.1659275 14.1261564,41.1943096 14.0929693,41.2137936 C14.0597821,41.2335844 14.0246159,41.2381869 13.9873184,41.2280614 C13.9503254,41.2185495 13.922162,41.1972245 13.902676,41.1640865 C13.3646788,40.2399024 13.1908268,39.4514923 13.3811201,38.7987029 C13.5532975,38.1726081 14.0559763,37.6730823 14.8894609,37.3001255 C14.2082109,35.9299582 13.3695503,35.3877824 12.3733268,35.6737517 C12.3366383,35.6861785 12.3014721,35.6840307 12.267676,35.6665411 C12.232662,35.6476709 12.2090656,35.6191353 12.1971913,35.5813947 C12.1847081,35.5444212 12.1869916,35.5088285 12.2041941,35.4749233 C12.2232235,35.439484 12.2512346,35.4158577 12.2888366,35.4038912 C13.4587598,35.036304 14.4310824,35.6708368 15.2065656,37.3071827 L15.2137207,37.3143933" id="Fill-35" fill="#B65E4E"></path>
                <path d="M58.7204008,17.2140028 L62.667236,16.6457462 C61.2365349,18.0984519 59.6507067,19.2986332 57.9099036,20.2467503 C53.5576676,22.6150488 48.2364581,23.4034589 41.9464274,22.6119805 L47.5141047,23.8195258 C45.6066047,24.8989679 43.280764,25.4531102 40.5367346,25.4813389 C33.9212263,25.5476151 28.5835754,23.1233194 24.5237821,18.2084519 C24.4665419,23.2937657 23.8417709,26.6390237 22.6491648,28.2443794 C21.4586899,29.8498884 20.6975168,32.451841 20.3656453,36.0502371 C19.5636732,36.2015063 18.8729846,36.3365132 18.2935796,36.4549512 L17.3209525,33.1521897 C15.7428883,31.6138773 14.0606955,31.1215621 12.274831,31.6750907 C11.863493,30.821325 11.4829064,29.8885495 11.132919,28.8764575 C7.37409358,17.2186053 9.1595014,10.5138215 16.4892947,8.76179916 C17.0344469,5.74086471 19.9287318,3.46799163 25.1724539,1.94333333 C39.4278575,-2.10994421 51.8135154,0.588967922 62.3288184,10.0403766 L65.7684078,7.98059972 C65.7869804,12.1852999 63.4376955,15.263152 58.7204008,17.2140028" id="Fill-36" fill="#142022"></path>
                <path d="M62.2899986,9.97425384 L59.6683659,11.5369596 C59.6321341,11.5585914 59.6202598,11.605537 59.6415726,11.6420502 C59.6630377,11.6785635 59.7096215,11.69053 59.7458534,11.6690516 L62.367486,10.1063459 C62.4037179,10.0848675 62.4157444,10.0377685 62.3942793,10.0012552 C62.3729665,9.9648954 62.3262304,9.95277545 62.2899986,9.97425384" id="Fill-37" fill="#0F1516"></path>
                <path d="M24.5237821,23.2653835 C24.3266383,22.9243375 24.2795978,22.5645746 24.3829651,22.185788 C24.4768939,21.8071548 24.693067,21.5228731 25.0314846,21.3335565 C27.0610768,20.1307671 29.4481159,19.5672664 32.191993,19.6432078 C32.5772989,19.6524128 32.9062779,19.8041423 33.1787779,20.097629 C33.4419916,20.3819107 33.5686508,20.7177406 33.5593645,21.1061925 C33.5497737,21.4944909 33.4042374,21.8258717 33.1222989,22.1006416 C32.831074,22.3657462 32.4975279,22.4935425 32.1215084,22.4841841 C29.9507947,22.4272664 28.0573003,22.8629707 26.4410251,23.7911437 C26.1026075,23.9803068 25.7456173,24.0277127 25.3695978,23.9330544 C24.9937304,23.8288842 24.7119441,23.6064296 24.5237821,23.2653835 Z M55.9434888,23.8195258 C55.558183,23.8477545 55.2150461,23.7388285 54.9145349,23.4925941 C53.561169,22.3846165 51.7568841,21.8353835 49.5016802,21.8448954 C49.1069358,21.8448954 48.7732374,21.7075872 48.5008897,21.4328173 C48.2191034,21.1583543 48.0779818,20.8268201 48.0779818,20.4385216 C48.0779818,20.0407113 48.2142318,19.7045746 48.4867318,19.4299582 C48.7593841,19.1458298 49.0929302,19.0039191 49.4876746,19.0039191 C52.5040517,18.9944073 54.9145349,19.7613389 56.7186676,21.3051743 C57.019331,21.5609205 57.1886159,21.8827894 57.2262179,22.2710879 C57.2542291,22.6593863 57.1462947,23.0050349 56.9019581,23.3078801 C56.648183,23.6110321 56.3287947,23.7816318 55.9434888,23.8195258 Z" id="Fill-38" fill="#0E1516"></path>
                <path d="M25.8488324,28.9191074 C24.4487304,30.3395955 23.7486034,32.0537238 23.7486034,34.0614923 C23.7486034,36.0595955 24.4487304,37.7689679 25.8488324,39.1894561 C27.2679637,40.6099442 28.9688813,41.320265 30.9515852,41.320265 C32.9437277,41.320265 34.6447975,40.6099442 36.0541858,39.1894561 C37.4638785,37.7689679 38.1687249,36.0595955 38.1687249,34.0614923 C38.1687249,32.0537238 37.4638785,30.3395955 36.0541858,28.9191074 C34.6447975,27.4986192 32.9437277,26.7882985 30.9515852,26.7882985 C28.9688813,26.7882985 27.2679637,27.4986192 25.8488324,28.9191074 Z M60.707824,27.9105439 C62.2957835,29.5109902 63.0901439,31.4287029 63.0901439,33.663682 C63.0901439,35.9081729 62.2957835,37.8258856 60.707824,39.4168201 C59.1385894,41.0079079 57.2402235,41.8033752 55.013183,41.8033752 C52.7859902,41.8033752 50.8830573,41.0079079 49.3043841,39.4168201 C47.8666802,37.9584379 47.0866299,36.2254393 46.9643855,34.2176709 C44.5776508,33.4412273 42.1295656,33.4837238 39.6205866,34.3456206 C39.5548212,36.637364 38.7044385,38.5977266 37.0691341,40.2265551 C35.377655,41.9406834 33.3384721,42.7976709 30.9515852,42.7976709 C28.5646983,42.7976709 26.5207961,41.9406834 24.8200307,40.2265551 C23.3540112,38.7586611 22.5223534,37.0207531 22.3250573,35.0131381 L17.095493,32.9390934 C16.0336564,31.9826918 14.9342179,31.4903766 13.7970251,31.4619944 C14.3233003,30.5147978 15.309933,30.3254812 16.7570754,30.8937378 L22.3390628,33.0386611 C22.5457975,31.0687866 23.3728883,29.3499024 24.8200307,27.8821618 C26.5207961,26.1773919 28.5646983,25.3251604 30.9515852,25.3251604 C33.3384721,25.3251604 35.377655,26.1773919 37.0691341,27.8821618 C38.469236,29.2931381 39.2963268,30.9409902 39.550102,32.8255649 C42.369183,31.8881869 44.8547179,31.8596513 47.0067067,32.7404184 C47.1854302,30.8937378 47.9510182,29.2836262 49.3043841,27.9105439 C50.8830573,26.3289679 52.7859902,25.5382566 55.013183,25.5382566 C57.2402235,25.5382566 59.1385894,26.3289679 60.707824,27.9105439 Z M61.7367779,33.6779498 C61.7367779,31.8122455 61.0789721,30.2165551 59.7633603,28.8905718 C58.4571872,27.5648954 56.878514,26.9019805 55.0271885,26.9019805 C53.1760154,26.9019805 51.5924707,27.5648954 50.2768589,28.8905718 C48.9706858,30.2165551 48.3175992,31.8122455 48.3175992,33.6779498 C48.3175992,35.5435007 48.9706858,37.1345886 50.2768589,38.4509066 C51.5924707,39.7767364 53.1760154,40.4396513 55.0271885,40.4396513 C56.878514,40.4396513 58.4571872,39.7767364 59.7633603,38.4509066 C61.0789721,37.1345886 61.7367779,35.5435007 61.7367779,33.6779498 Z" id="Fill-39" fill="#161615"></path>
                <path d="M25.8488324,28.9191074 C27.2679637,27.4986192 28.9688813,26.7882985 30.9515852,26.7882985 C32.9437277,26.7882985 34.6447975,27.4986192 36.0541858,28.9191074 C37.4638785,30.3395955 38.1687249,32.0537238 38.1687249,34.0614923 C38.1687249,36.0595955 37.4638785,37.7689679 36.0541858,39.1894561 C34.6447975,40.6099442 32.9437277,41.320265 30.9515852,41.320265 C28.9688813,41.320265 27.2679637,40.6099442 25.8488324,39.1894561 C24.4487304,37.7689679 23.7486034,36.0595955 23.7486034,34.0614923 C23.7486034,32.0537238 24.4487304,30.3395955 25.8488324,28.9191074 Z M61.7367779,33.6779498 C61.7367779,35.5435007 61.0789721,37.1345886 59.7633603,38.4509066 C58.4571872,39.7767364 56.878514,40.4396513 55.0271885,40.4396513 C53.1760154,40.4396513 51.5924707,39.7767364 50.2768589,38.4509066 C48.9706858,37.1345886 48.3175992,35.5435007 48.3175992,33.6779498 C48.3175992,31.8122455 48.9706858,30.2165551 50.2768589,28.8905718 C51.5924707,27.5648954 53.1760154,26.9019805 55.0271885,26.9019805 C56.878514,26.9019805 58.4571872,27.5648954 59.7633603,28.8905718 C61.0789721,30.2165551 61.7367779,31.8122455 61.7367779,33.6779498 Z" id="Fill-40" fill="#FFFFFE"></path>
                <path d="M32.6712277,34.1039888 C32.4176047,33.8482427 32.2906411,33.5357322 32.2906411,33.1666109 C32.2906411,32.7971827 32.4176047,32.4846722 32.6712277,32.2289261 C32.9250028,31.9731799 33.2351047,31.845537 33.6016858,31.845537 C33.9681145,31.845537 34.2782165,31.9731799 34.5318394,32.2289261 C34.7856145,32.4846722 34.912426,32.7971827 34.912426,33.1666109 C34.912426,33.5357322 34.7856145,33.8482427 34.5318394,34.1039888 C34.2782165,34.359735 33.9681145,34.4875314 33.6016858,34.4875314 C33.2351047,34.4875314 32.9250028,34.359735 32.6712277,34.1039888 Z M56.0421369,33.1666109 C56.0421369,32.7971827 56.1689483,32.4846722 56.4227235,32.2289261 C56.6764986,31.9731799 56.9864483,31.845537 57.3530293,31.845537 C57.7194581,31.845537 58.0295601,31.9731799 58.2833352,32.2289261 C58.5372626,32.4846722 58.6639218,32.7971827 58.6639218,33.1666109 C58.6639218,33.5357322 58.5372626,33.8482427 58.2833352,34.1039888 C58.0295601,34.359735 57.7194581,34.4875314 57.3530293,34.4875314 C56.9864483,34.4875314 56.6764986,34.359735 56.4227235,34.1039888 C56.1689483,33.8482427 56.0421369,33.5357322 56.0421369,33.1666109 Z" id="Fill-41" fill="#875233"></path>
            </g>
            <g id="Group-42">
                <mask id="mask-4" fill="white">
                    <use xlink:href="#path-3"></use>
                </mask>
                <g id="Clip-41"></g>
                <path d="M158.712,65.452 C158.712,79.8 147.081,91.432 132.733,91.432 L116.737,91.432 L102.571,122.757 L98.187,91.432 L26.656,91.432 C12.308,91.432 0.677,79.8 0.677,65.452 L0.677,26.736 C0.677,12.388 12.308,0.757 26.656,0.757 L132.733,0.757 C147.081,0.757 158.712,12.388 158.712,26.736 L158.712,65.452 Z" id="Fill-40" fill="#C7D8E6" mask="url(#mask-4)"></path>
            </g>
            <text id="Your-Score…" font-family="Arial-Black, Arial Black" font-size="24" font-weight="700" line-spacing="26" letter-spacing="-0.460000008" fill="#000000">
                <tspan x="46.6192188" y="38.9960938">Your </tspan>
                <tspan x="26.5303907" y="64.9960938">Score…</tspan>
            </text>
        </g>
    </g>
</svg>