<svg width="21px" height="17px" viewBox="0 0 21 17" version="1.1" xmlns="http://www.w3.org/2000/svg" xmlns:xlink="http://www.w3.org/1999/xlink">
    <!-- Generator: Sketch 44.1 (41455) - http://www.bohemiancoding.com/sketch -->
    <desc>Created with Sketch.</desc>
    <defs></defs>
    <g id="Page-1" stroke="none" stroke-width="1" fill="none" fill-rule="evenodd">
        <g id="Group-75" fill-rule="nonzero" fill="#303030">
            <path d="M20.73225,9.03353846 L18.682125,6.81307692 C18.3999375,6.53584615 17.9445,6.53584615 17.663625,6.81307692 L15.610875,9.03353846 C15.3286875,9.31338462 15.3286875,9.76453846 15.610875,10.0430769 L17.30925,10.0430769 C16.671375,12.4296154 14.791875,14.3532308 12.3361875,14.9992308 C9.4906875,15.7472308 6.4483125,14.6343846 4.767,12.2282308 L3.3350625,13.2103077 C4.9966875,15.589 7.72275,16.9555385 10.5511875,16.9555385 C11.29275,16.9555385 12.0435,16.8613846 12.7798125,16.6665385 C15.99675,15.8217692 18.4275,13.2233846 19.096875,10.0430769 L20.7309375,10.0430769 C21.013125,9.76453846 21.013125,9.31338462 20.73225,9.03353846 L20.73225,9.03353846 Z" id="Shape"></path>
            <path d="M5.8734375,7.87361538 C6.155625,7.59507692 6.155625,7.14261538 5.8734375,6.86407692 L3.961125,6.86407692 C4.61475,4.50892308 6.4785,2.61669231 8.9105625,1.97592308 C11.7586875,1.22661538 14.7984375,2.34207692 16.4784375,4.74953846 L17.9116875,3.76615385 C15.8143125,0.765 12.0238125,-0.626384615 8.463,0.307307692 C5.271,1.14815385 2.8546875,3.71384615 2.163,6.86407692 L0.25725,6.86407692 C-0.0249375,7.14392308 -0.0249375,7.59638462 0.25725,7.87361538 L2.407125,10.0143077 C2.688,10.2915385 3.14475,10.2915385 3.425625,10.0143077 L5.8734375,7.87361538 L5.8734375,7.87361538 Z" id="Shape"></path>
        </g>
    </g>
</svg>