
<svg width="230px" height="221px" viewBox="0 0 230 221" version="1.1" xmlns="http://www.w3.org/2000/svg" xmlns:xlink="http://www.w3.org/1999/xlink">
    <!-- Generator: Sketch 44.1 (41455) - http://www.bohemiancoding.com/sketch -->
    <desc>Created with Sketch.</desc>
    <defs></defs>
    <g id="Page-1" stroke="none" stroke-width="1" fill="none" fill-rule="evenodd">
        <g id="Group-48">
            <g id="Group-47">
                <path d="M64.8389751,189.012957 C64.8389751,189.012957 70.5851524,197.492478 86.4557895,194.757046 C102.326427,192.021614 107.79928,186.824611 119.83892,187.644922 C131.87856,188.46587 146.381302,202.134752 165.26169,195.300311 L169.913296,159.1977 L149.117091,145.521176 L123.943241,148.803695 L105.883463,148.256608 L76.878615,145.521176 L64.8389751,155.09487 L62.3765097,173.421311 L64.8389751,189.012957" id="Fill-10" fill="#4C181A"></path>
                <path d="M137.624737,150.718179 C137.624737,150.718179 137.077452,158.923839 137.624737,161.933133 C138.172022,164.94179 154.763878,164.57749 155.957839,162.958522 C157.152438,161.34019 157.019917,150.718179 157.019917,150.718179 L137.624737,150.718179" id="Fill-11" fill="#E4E5E3"></path>
                <path d="M115.68554,150.718179 C115.68554,150.718179 114.930554,160.565098 117.247756,161.933133 C119.564958,163.30053 133.246454,163.30053 135.435596,161.933133 C137.624737,160.565098 135.435596,150.718179 135.435596,150.718179 L115.68554,150.718179" id="Fill-12" fill="#E4E5E3"></path>
                <path d="M91.3813573,150.718179 C91.3813573,150.718179 90.5601108,163.30053 93.8438227,163.574392 C97.1275346,163.847617 112.284598,163.847617 114.00928,161.933133 C115.734598,160.018012 114.00928,150.718179 114.00928,150.718179 L91.3813573,150.718179" id="Fill-13" fill="#E4E5E3"></path>
                <path d="M71.679723,154.547784 C71.679723,154.547784 70.3118283,165.488876 75.236759,165.488876 C80.1623269,165.488876 88.3709695,164.94179 89.4655402,163.027305 C90.5601108,161.112184 89.4655402,149.076919 89.4655402,149.076919 L71.679723,154.547784" id="Fill-14" fill="#E4E5E3"></path>
                <path d="M46.1408033,43.8586282 C17.4526039,64.9892853 35.1957341,92.729562 46.1408033,102.212182 C57.0858726,111.694164 101.596925,118.259202 107.434211,86.1645245 C113.271496,54.0704841 73.8688643,23.4349164 46.1408033,43.8586282" id="Fill-15" fill="#FFFFFF"></path>
                <path d="M89.1922161,80.7809135 C85.238892,80.7809135 82.0341828,77.5773689 82.0341828,73.6261182 C82.0341828,69.6735937 85.238892,66.470049 89.1922161,66.470049 C93.1455402,66.470049 96.3502493,69.6735937 96.3502493,73.6261182 C96.3502493,77.5773689 93.1455402,80.7809135 89.1922161,80.7809135 Z M85.5434349,59.1757752 C77.5603324,59.1757752 71.0891136,65.6452795 71.0891136,73.6261182 C71.0891136,81.6063199 77.5603324,88.0751873 85.5434349,88.0751873 C93.5271745,88.0751873 99.9983934,81.6063199 99.9983934,73.6261182 C99.9983934,65.6452795 93.5271745,59.1757752 85.5434349,59.1757752 L85.5434349,59.1757752 Z" id="Fill-16" fill="#483E36"></path>
                <path d="M99.9983934,95.0663026 C99.9983934,95.0663026 81.1657895,108.776582 45.7757341,96.3763804 C45.7757341,96.3763804 74.9634349,121.90602 99.9983934,95.0663026" id="Fill-17" fill="#F2F2F1"></path>
                <path d="M179.122853,43.8586282 C207.811053,64.9892853 190.067922,92.729562 179.122853,102.212182 C168.177147,111.694164 123.666731,118.259202 117.829446,86.1645245 C111.991524,54.0704841 151.394792,23.4349164 179.122853,43.8586282" id="Fill-18" fill="#FFFFFF"></path>
                <path d="M128.913407,73.6261182 C128.913407,69.6735937 132.118116,66.470049 136.07144,66.470049 C140.024765,66.470049 143.229474,69.6735937 143.229474,73.6261182 C143.229474,77.5773689 140.024765,80.7809135 136.07144,80.7809135 C132.118116,80.7809135 128.913407,77.5773689 128.913407,73.6261182 Z M125.264626,73.6261182 C125.264626,81.6063199 131.736482,88.0751873 139.719584,88.0751873 C147.702687,88.0751873 154.174543,81.6063199 154.174543,73.6261182 C154.174543,65.6452795 147.702687,59.1757752 139.719584,59.1757752 C131.736482,59.1757752 125.264626,65.6452795 125.264626,73.6261182 L125.264626,73.6261182 Z" id="Fill-19" fill="#483E36"></path>
                <path d="M125.264626,95.0663026 C125.264626,95.0663026 144.097867,108.776582 179.487285,96.3763804 C179.487285,96.3763804 150.300222,121.90602 125.264626,95.0663026" id="Fill-20" fill="#F2F2F1"></path>
                <path d="M72.8870637,0.275772334 C72.8870637,0.275772334 38.2169529,-3.0067464 30.595097,21.0637839 C30.595097,21.0637839 42.3531302,6.29308646 72.8870637,0.275772334" id="Fill-21" fill="#2A2A2A"></path>
                <path d="M145.01277,10.5946254 C145.01277,10.5946254 170.734543,-0.818400576 184.963324,28.7229942 C184.963324,28.7229942 167.998116,9.97174928 145.01277,10.5946254" id="Fill-22" fill="#2A2A2A"></path>
                <path d="M114.913352,145.794401 C118.657064,150.784415 112.176925,161.112184 97.4008587,155.09487 C82.6247922,149.076919 68.8560111,155.641957 71.0891136,174.788709 C73.3215789,193.936098 65.5799446,227.307098 30.595097,219.648524 C-4.38975069,211.989314 -2.74789474,187.371697 5.46074792,177.524141 C13.6700277,167.677222 33.9183102,170.987764 40.4857341,183.282242 C47.0531579,195.577357 31.7298061,201.048222 27.8988089,193.936098 C27.8988089,193.936098 33.3633795,197.083597 37.2020222,190.106493 C40.1206648,184.801856 26.8290859,172.053914 12.5875623,179.165401 C-1.6533241,186.277524 12.5754571,215.271833 36.1074515,210.348055 C59.6400831,205.424277 52.5986427,187.918784 51.7410803,171.506827 C50.883518,155.09487 58.5455125,137.041654 79.3410803,135.400395 C100.137285,133.759135 109.987784,139.23 114.913352,145.794401" id="Fill-23" fill="#2A2A2A"></path>
                <path d="M115.049695,145.794401 C111.305983,150.784415 117.786122,161.112184 132.562188,155.09487 C147.338255,149.076919 161.107036,155.641957 158.874571,174.788709 C156.641468,193.936098 164.383102,227.307098 199.36795,219.648524 C234.352798,211.989314 232.710942,187.371697 224.502299,177.524141 C216.293019,167.677222 196.044737,170.987764 189.477313,183.282242 C182.910526,195.577357 198.233878,201.048222 202.064238,193.936098 C202.064238,193.936098 196.599668,197.083597 192.761025,190.106493 C189.842382,184.801856 203.133961,172.053914 217.375485,179.165401 C231.616371,186.277524 217.38759,215.271833 193.855596,210.348055 C170.322964,205.424277 177.364404,187.918784 178.221967,171.506827 C179.079529,155.09487 171.417535,137.041654 150.621967,135.400395 C129.825762,133.759135 119.975263,139.23 115.049695,145.794401" id="Fill-24" fill="#2A2A2A"></path>
                <path d="M112.176925,178.894086 C111.082355,179.989533 109.167175,181.353746 107.525319,179.986349 C105.883463,178.618314 95.2117175,177.524141 85.6351801,183.268231 C80.291662,186.473686 79.039723,191.463063 78.9747368,195.251908 C81.1727978,195.360816 83.6486427,195.241081 86.4557895,194.757046 C102.326427,192.021614 107.79928,186.824611 119.83892,187.644922 C126.180803,188.077369 133.21651,192.061101 141.205346,194.748767 C142.405042,175.755504 113.179751,177.889715 112.176925,178.894086" id="Fill-25" fill="#DF585C"></path>
            </g>
        </g>
    </g>
</svg>